<svg width="18" height="18" viewBox="0 0 18 18" fill="none" xmlns="http://www.w3.org/2000/svg">
<g clip-path="url(#clip0_1208_10005)">
<path d="M16.5 16.5H1.5" stroke="#1B1B1B" stroke-width="1.5" stroke-linecap="round"/>
<path d="M15.7501 16.5V4.5C15.7501 3.0855 15.7501 2.379 15.3106 1.9395C14.8711 1.5 14.1646 1.5 12.7501 1.5H11.2501C9.83555 1.5 9.12905 1.5 8.68955 1.9395C8.33555 2.29275 8.26655 2.82 8.25305 3.75" stroke="#1B1B1B" stroke-width="1.5"/>
<path d="M11.25 16.5V6.75C11.25 5.3355 11.25 4.629 10.8105 4.1895C10.371 3.75 9.6645 3.75 8.25 3.75H5.25C3.8355 3.75 3.129 3.75 2.6895 4.1895C2.25 4.629 2.25 5.3355 2.25 6.75V16.5" stroke="#1B1B1B" stroke-width="1.5"/>
<path d="M6.75 16.5V14.25M4.5 6H9M4.5 8.25H9M4.5 10.5H9" stroke="#1B1B1B" stroke-width="1.5" stroke-linecap="round"/>
</g>
<defs>
<clipPath id="clip0_1208_10005">
<rect width="18" height="18" fill="white"/>
</clipPath>
</defs>
</svg>
