<svg width="1440" height="111" viewBox="0 0 1440 111" fill="none" xmlns="http://www.w3.org/2000/svg">
<path d="M720 1.5C952.214 1.5 1162.43 7.71121 1314.58 17.752C1390.66 22.7727 1452.19 28.7493 1494.68 35.3789C1515.93 38.6954 1532.36 42.1661 1543.45 45.7422C1549.01 47.5337 1553.13 49.3239 1555.84 51.083C1558.63 52.8952 1559.5 54.3974 1559.5 55.5C1559.5 56.6026 1558.63 58.1048 1555.84 59.917C1553.13 61.6761 1549.01 63.4663 1543.45 65.2578C1532.36 68.8339 1515.93 72.3046 1494.68 75.6211C1452.19 82.2507 1390.66 88.2273 1314.58 93.248C1162.43 103.289 952.214 109.5 720 109.5C487.786 109.5 277.571 103.289 125.422 93.248C49.3411 88.2273 -12.1876 82.2507 -54.6787 75.6211C-75.9348 72.3046 -92.3643 68.8339 -103.453 65.2578C-109.008 63.4663 -113.134 61.6761 -115.841 59.917C-118.63 58.1048 -119.5 56.6026 -119.5 55.5C-119.5 54.3974 -118.63 52.8952 -115.841 51.083C-113.134 49.3239 -109.008 47.5337 -103.453 45.7422C-92.3643 42.1661 -75.9348 38.6954 -54.6787 35.3789C-12.1876 28.7493 49.3411 22.7727 125.422 17.752C277.571 7.71121 487.786 1.5 720 1.5Z" fill="#0F0F0F" stroke="url(#paint0_linear_1163_31535)" stroke-width="3"/>
<rect x="-121" y="55" width="1682" height="56" fill="#0F0F0F"/>
<defs>
<linearGradient id="paint0_linear_1163_31535" x1="1561" y1="55.5" x2="-121" y2="55.5" gradientUnits="userSpaceOnUse">
<stop stop-color="#ED4B22" stop-opacity="0"/>
<stop offset="0.5" stop-color="#E8047E"/>
<stop offset="1" stop-color="#ED4B22" stop-opacity="0"/>
</linearGradient>
</defs>
</svg>
