<svg width="24" height="24" viewBox="0 0 24 24" fill="none" xmlns="http://www.w3.org/2000/svg">
<path d="M4 22H20" stroke="url(#paint0_linear_1153_6023)" stroke-width="1.5" stroke-linecap="round"/>
<path d="M18.3367 8.11127L19.0787 7.37127C19.3709 7.07915 19.6027 6.73233 19.7608 6.35062C19.919 5.96892 20.0004 5.5598 20.0005 5.14663C20.0005 4.73345 19.9192 4.32431 19.7611 3.94257C19.603 3.56083 19.3713 3.21396 19.0792 2.92177C18.7871 2.62958 18.4403 2.39779 18.0585 2.23963C17.6768 2.08147 17.2677 2.00005 16.8545 2C16.4414 1.99995 16.0322 2.08129 15.6505 2.23936C15.2688 2.39743 14.9219 2.62915 14.6297 2.92127L13.8877 3.66327C13.8877 3.66327 13.9807 5.23927 15.3707 6.62927C16.7607 8.01927 18.3367 8.11227 18.3367 8.11227L11.5197 14.9293C11.0577 15.3913 10.8277 15.6213 10.5727 15.8203C10.272 16.0549 9.94903 16.2546 9.60369 16.4193C9.31269 16.5583 9.00269 16.6613 8.38369 16.8673L5.75769 17.7433M13.8877 3.66227L7.07069 10.4803C6.60869 10.9423 6.37769 11.1723 6.17969 11.4273C5.94514 11.7274 5.74427 12.0523 5.58069 12.3963C5.44169 12.6873 5.33869 12.9973 5.13169 13.6163L4.25669 16.2423M4.25669 16.2423L4.04369 16.8833C3.99376 17.0327 3.98647 17.1931 4.02262 17.3465C4.05877 17.4999 4.13695 17.6402 4.24837 17.7516C4.3598 17.863 4.50007 17.9412 4.65344 17.9773C4.80682 18.0135 4.96723 18.0062 5.11669 17.9563L5.75769 17.7433M4.25669 16.2423L5.75769 17.7433" stroke="url(#paint1_linear_1153_6023)" stroke-width="1.5"/>
<defs>
<linearGradient id="paint0_linear_1153_6023" x1="4" y1="22" x2="4.12451" y2="23.9922" gradientUnits="userSpaceOnUse">
<stop stop-color="#ED4B22"/>
<stop offset="1" stop-color="#E8047E"/>
</linearGradient>
<linearGradient id="paint1_linear_1153_6023" x1="4" y1="2" x2="20" y2="18.0005" gradientUnits="userSpaceOnUse">
<stop stop-color="#ED4B22"/>
<stop offset="1" stop-color="#E8047E"/>
</linearGradient>
</defs>
</svg>
