<svg width="18" height="18" viewBox="0 0 18 18" fill="none" xmlns="http://www.w3.org/2000/svg">
<path d="M15.7911 8.99979H14.2911C14.0922 8.99979 13.9014 9.07881 13.7608 9.21946C13.6201 9.36011 13.5411 9.55088 13.5411 9.74979C13.5411 9.9487 13.6201 10.1395 13.7608 10.2801C13.9014 10.4208 14.0922 10.4998 14.2911 10.4998V11.9998H13.4016C13.4902 11.7595 13.5371 11.5059 13.5404 11.2498C13.5403 10.7545 13.3769 10.2731 13.0754 9.88014C12.7739 9.48721 12.3511 9.20475 11.8727 9.07656C11.3943 8.94837 10.887 8.98161 10.4294 9.17114C9.97179 9.36066 9.58953 9.69587 9.34186 10.1248C9.29184 10.2101 9.25919 10.3045 9.24579 10.4025C9.23239 10.5005 9.23851 10.6002 9.26379 10.6958C9.28907 10.7914 9.33302 10.8811 9.3931 10.9597C9.45318 11.0382 9.52821 11.1042 9.61387 11.1536C9.69953 11.2031 9.79412 11.2351 9.89221 11.2478C9.99029 11.2606 10.0899 11.2538 10.1854 11.2279C10.2808 11.202 10.3702 11.1574 10.4484 11.0968C10.5266 11.0362 10.592 10.9608 10.6409 10.8748C10.7067 10.7608 10.8014 10.6661 10.9154 10.6003C11.0294 10.5344 11.1587 10.4998 11.2904 10.4998C11.4893 10.4998 11.68 10.5788 11.8207 10.7195C11.9613 10.8601 12.0404 11.0509 12.0404 11.2498C12.0404 11.4487 11.9613 11.6395 11.8207 11.7801C11.68 11.9208 11.4893 11.9998 11.2904 11.9998C11.0915 11.9998 10.9007 12.0788 10.76 12.2195C10.6194 12.3601 10.5404 12.5509 10.5404 12.7498C10.5404 12.9487 10.6194 13.1395 10.76 13.2801C10.9007 13.4208 11.0915 13.4998 11.2904 13.4998C11.4893 13.4998 11.68 13.5788 11.8207 13.7195C11.9613 13.8601 12.0404 14.0509 12.0404 14.2498C12.0404 14.4487 11.9613 14.6395 11.8207 14.7801C11.68 14.9208 11.4893 14.9998 11.2904 14.9998C11.1587 14.9998 11.0294 14.9651 10.9154 14.8993C10.8014 14.8335 10.7067 14.7388 10.6409 14.6248C10.592 14.5388 10.5266 14.4633 10.4484 14.4027C10.3702 14.3421 10.2808 14.2976 10.1854 14.2717C10.0899 14.2458 9.99029 14.239 9.89221 14.2517C9.79412 14.2645 9.69953 14.2965 9.61387 14.346C9.52821 14.3954 9.45318 14.4613 9.3931 14.5399C9.33302 14.6185 9.28907 14.7082 9.26379 14.8038C9.23851 14.8994 9.23239 14.9991 9.24579 15.0971C9.25919 15.1951 9.29184 15.2895 9.34186 15.3748C9.58953 15.8037 9.97179 16.1389 10.4294 16.3284C10.887 16.518 11.3943 16.5512 11.8727 16.423C12.3511 16.2948 12.7739 16.0124 13.0754 15.6194C13.3769 15.2265 13.5403 14.7451 13.5404 14.2498C13.5371 13.9937 13.4902 13.7401 13.4016 13.4998H14.2904V15.7498C14.2904 15.9487 14.3694 16.1395 14.51 16.2801C14.6507 16.4208 14.8415 16.4998 15.0404 16.4998C15.2393 16.4998 15.43 16.4208 15.5707 16.2801C15.7113 16.1395 15.7904 15.9487 15.7904 15.7498V10.4998C15.9893 10.4998 16.18 10.4208 16.3207 10.2801C16.4613 10.1395 16.5404 9.9487 16.5404 9.74979C16.5404 9.55088 16.4613 9.36011 16.3207 9.21946C16.18 9.07881 15.99 8.99979 15.7911 8.99979ZM6.81286 8.43204C6.83622 8.52819 6.87837 8.61876 6.93689 8.69854C6.9954 8.77833 7.06913 8.84574 7.15381 8.89691C7.2385 8.94808 7.33247 8.98198 7.43031 8.99667C7.52816 9.01136 7.62794 9.00655 7.72392 8.9825C7.8199 8.95846 7.91017 8.91566 7.98953 8.85658C8.0689 8.7975 8.13578 8.72329 8.18635 8.63825C8.23691 8.5532 8.27014 8.45899 8.28413 8.36104C8.29812 8.26309 8.29259 8.16334 8.26786 8.06754L6.95011 2.79504C6.85793 2.42468 6.6445 2.0958 6.3438 1.86076C6.04309 1.62573 5.6724 1.49805 5.29074 1.49805C4.90908 1.49805 4.53839 1.62573 4.23768 1.86076C3.93698 2.0958 3.72354 2.42468 3.63136 2.79504L2.31286 8.06754C2.28814 8.16334 2.28261 8.26309 2.2966 8.36104C2.31059 8.45899 2.34382 8.5532 2.39438 8.63825C2.44494 8.72329 2.51183 8.7975 2.5912 8.85658C2.67056 8.91566 2.76083 8.95846 2.85681 8.9825C2.95278 9.00655 3.05257 9.01136 3.15042 8.99667C3.24826 8.98198 3.34223 8.94808 3.42692 8.89691C3.5116 8.84574 3.58533 8.77833 3.64384 8.69854C3.70236 8.61876 3.74451 8.52819 3.76786 8.43204L4.18786 6.74979H6.39286L6.81286 8.43204ZM4.56361 5.24979L5.08636 3.15954C5.10213 3.118 5.13016 3.08224 5.16673 3.057C5.2033 3.03176 5.24668 3.01825 5.29111 3.01825C5.33555 3.01825 5.37893 3.03176 5.4155 3.057C5.45207 3.08224 5.4801 3.118 5.49586 3.15954L6.01861 5.24979H4.56361ZM10.5411 5.24979H11.2911C11.49 5.24979 11.6808 5.32881 11.8214 5.46946C11.9621 5.61011 12.0411 5.80088 12.0411 5.99979V6.74979C12.0411 6.9487 12.1201 7.13947 12.2608 7.28012C12.4014 7.42077 12.5922 7.49979 12.7911 7.49979C12.99 7.49979 13.1808 7.42077 13.3214 7.28012C13.4621 7.13947 13.5411 6.9487 13.5411 6.74979V5.99979C13.5405 5.40324 13.3033 4.83129 12.8814 4.40946C12.4596 3.98763 11.8877 3.75039 11.2911 3.74979H10.5411C10.3422 3.74979 10.1514 3.82881 10.0108 3.96946C9.87013 4.11011 9.79111 4.30088 9.79111 4.49979C9.79111 4.6987 9.87013 4.88947 10.0108 5.03012C10.1514 5.17077 10.3422 5.24979 10.5411 5.24979ZM7.54111 11.9998H6.79111C6.5922 11.9998 6.40144 11.9208 6.26078 11.7801C6.12013 11.6395 6.04111 11.4487 6.04111 11.2498V10.4998C6.04111 10.3009 5.9621 10.1101 5.82144 9.96946C5.68079 9.82881 5.49003 9.74979 5.29111 9.74979C5.0922 9.74979 4.90144 9.82881 4.76078 9.96946C4.62013 10.1101 4.54111 10.3009 4.54111 10.4998V11.2498C4.54171 11.8463 4.77895 12.4183 5.20078 12.8401C5.62261 13.2619 6.19456 13.4992 6.79111 13.4998H7.54111C7.74003 13.4998 7.93079 13.4208 8.07144 13.2801C8.2121 13.1395 8.29111 12.9487 8.29111 12.7498C8.29111 12.5509 8.2121 12.3601 8.07144 12.2195C7.93079 12.0788 7.74003 11.9998 7.54111 11.9998Z" fill="#7F7F7F"/>
</svg>
