<svg width="393" height="111" viewBox="0 0 393 111" fill="none" xmlns="http://www.w3.org/2000/svg">
<path d="M196 1.5C261.642 1.5 321.023 7.70621 363.951 17.7168C385.427 22.7249 402.702 28.6666 414.572 35.2109C420.508 38.4833 425.022 41.8682 428.037 45.3037C431.043 48.7297 432.5 52.1334 432.5 55.5C432.5 58.8666 431.043 62.2703 428.037 65.6963C425.022 69.1318 420.508 72.5167 414.572 75.7891C402.702 82.3334 385.427 88.2751 363.951 93.2832C321.023 103.294 261.642 109.5 196 109.5C130.358 109.5 70.9771 103.294 28.0488 93.2832C6.57297 88.2751 -10.7023 82.3334 -22.5723 75.7891C-28.5077 72.5167 -33.0223 69.1318 -36.0371 65.6963C-39.0434 62.2703 -40.5 58.8666 -40.5 55.5C-40.5 52.1334 -39.0434 48.7297 -36.0371 45.3037C-33.0223 41.8682 -28.5077 38.4833 -22.5723 35.2109C-10.7023 28.6666 6.57297 22.7249 28.0488 17.7168C70.9771 7.70621 130.358 1.5 196 1.5Z" fill="#0F0F0F" stroke="url(#paint0_linear_1163_31119)" stroke-width="3"/>
<rect x="-1" y="35" width="393" height="76" fill="#0F0F0F"/>
<defs>
<linearGradient id="paint0_linear_1163_31119" x1="434" y1="55.5" x2="-42" y2="55.5" gradientUnits="userSpaceOnUse">
<stop stop-color="#ED4B22" stop-opacity="0"/>
<stop offset="0.5" stop-color="#E8047E"/>
<stop offset="1" stop-color="#ED4B22" stop-opacity="0"/>
</linearGradient>
</defs>
</svg>
