<svg width="24" height="24" viewBox="0 0 24 24" fill="none" xmlns="http://www.w3.org/2000/svg">
<path d="M16.6291 13.8905L17.0851 13.4375L16.0261 12.3735L15.5721 12.8265L16.6291 13.8905ZM18.6141 13.2475L20.5251 14.2865L21.2401 12.9685L19.3301 11.9305L18.6141 13.2475ZM20.8921 16.3505L19.4721 17.7635L20.5291 18.8265L21.9491 17.4145L20.8921 16.3505ZM18.6061 18.2175C17.1561 18.3535 13.4061 18.2325 9.34405 14.1945L8.28605 15.2575C12.7181 19.6645 16.9371 19.8805 18.7461 19.7115L18.6061 18.2175ZM9.34405 14.1945C5.47305 10.3445 4.83105 7.10747 4.75105 5.70247L3.25305 5.78747C3.35305 7.55547 4.14805 11.1435 8.28605 15.2575L9.34405 14.1945ZM10.7191 8.01447L11.0061 7.72847L9.95005 6.66547L9.66305 6.95047L10.7191 8.01447ZM11.2341 4.09347L9.97405 2.40947L8.77305 3.30947L10.0331 4.99247L11.2341 4.09347ZM5.73305 2.04247L4.16305 3.60247L5.22105 4.66647L6.79005 3.10647L5.73305 2.04247ZM10.1911 7.48247C9.66105 6.95047 9.66105 6.95047 9.66105 6.95247H9.65905L9.65605 6.95647C9.60853 7.00439 9.56598 7.05699 9.52905 7.11347C9.47505 7.19347 9.41605 7.29847 9.36605 7.43147C9.24433 7.7748 9.214 8.14388 9.27805 8.50247C9.41205 9.36747 10.0081 10.5105 11.5341 12.0285L12.5921 10.9645C11.1631 9.54447 10.8231 8.68047 10.7601 8.27247C10.7301 8.07847 10.7611 7.98247 10.7701 7.96047C10.7761 7.94714 10.7761 7.94514 10.7701 7.95447C10.7611 7.96827 10.7511 7.98132 10.7401 7.99347L10.7301 8.00347L10.7201 8.01247L10.1911 7.48247ZM11.5341 12.0285C13.0611 13.5465 14.2101 14.1385 15.0761 14.2705C15.5191 14.3385 15.8761 14.2845 16.1471 14.1835C16.2989 14.1279 16.4407 14.0483 16.5671 13.9475L16.6171 13.9025L16.6241 13.8965L16.6271 13.8935L16.6281 13.8915C16.6281 13.8915 16.6291 13.8905 16.1001 13.3585C15.5701 12.8265 15.5731 12.8255 15.5731 12.8255L15.5751 12.8235L15.5771 12.8215L15.5831 12.8165L15.5931 12.8065L15.6311 12.7765C15.6404 12.7705 15.6381 12.7711 15.6241 12.7785C15.5991 12.7875 15.5011 12.8185 15.3041 12.7885C14.8901 12.7245 14.0201 12.3845 12.5921 10.9645L11.5341 12.0285ZM9.97405 2.40847C8.95405 1.04847 6.95005 0.832472 5.73305 2.04247L6.79005 3.10647C7.32205 2.57747 8.26605 2.63247 8.77305 3.30947L9.97405 2.40847ZM4.75205 5.70347C4.73205 5.35747 4.89105 4.99547 5.22105 4.66747L4.16205 3.60347C3.62505 4.13747 3.20205 4.89347 3.25305 5.78747L4.75205 5.70347ZM19.4721 17.7635C19.1981 18.0375 18.9021 18.1915 18.6071 18.2185L18.7461 19.7115C19.4811 19.6425 20.0821 19.2725 20.5301 18.8275L19.4721 17.7635ZM11.0061 7.72847C11.9911 6.74947 12.0641 5.20247 11.2351 4.09447L10.0341 4.99347C10.4371 5.53247 10.3771 6.23947 9.94905 6.66647L11.0061 7.72847ZM20.5261 14.2875C21.3431 14.7315 21.4701 15.7775 20.8931 16.3515L21.9511 17.4145C23.2911 16.0815 22.878 13.8585 21.2411 12.9695L20.5261 14.2875ZM17.0851 13.4385C17.4691 13.0565 18.0871 12.9625 18.6151 13.2485L19.3311 11.9315C18.2471 11.3415 16.9031 11.5045 16.0271 12.3745L17.0851 13.4385Z" fill="#7F7F7F"/>
</svg>
