<svg width="32" height="32" viewBox="0 0 32 32" fill="none" xmlns="http://www.w3.org/2000/svg">
<path d="M5.333 14.6667H21.333C23.8477 14.6667 25.1037 14.6667 25.885 15.448C26.6663 16.2293 26.6663 17.4853 26.6663 20V21.3333C26.6663 25.104 26.6663 26.9907 25.4943 28.1613C24.3237 29.3333 22.437 29.3333 18.6663 29.3333H13.333C9.56233 29.3333 7.67566 29.3333 6.505 28.1613C5.333 26.9907 5.333 25.104 5.333 21.3333V14.6667ZM5.333 14.6667C4.68766 12.2587 4.36766 11.0547 4.645 10.02C4.82652 9.34178 5.18337 8.72328 5.67966 8.22667C6.43833 7.46933 7.641 7.14667 10.049 6.50133L19.3863 3.99867C20.2837 3.75867 20.733 3.63867 21.1263 3.612C21.9156 3.56052 22.7025 3.74419 23.3874 4.13981C24.0723 4.53544 24.6246 5.12524 24.9743 5.83467C25.149 6.188 25.269 6.63733 25.5103 7.53467C25.5903 7.83467 25.6303 7.984 25.6383 8.11467C25.6556 8.37767 25.5945 8.63988 25.4628 8.86817C25.3311 9.09647 25.1346 9.28061 24.8983 9.39733C24.7797 9.456 24.6317 9.496 24.3317 9.576L5.333 14.6667Z" stroke="#F2F2F2" stroke-width="1.5"/>
<path d="M19.5993 3.92139L18.7499 11.0521M11.2286 6.16539L10.3779 13.2947" stroke="#F2F2F2" stroke-width="1.5" stroke-linecap="round"/>
</svg>
