<svg width="18" height="18" viewBox="0 0 18 18" fill="none" xmlns="http://www.w3.org/2000/svg">
<path d="M5.25161 9H8.06411C8.94311 9 9.76811 8.7 10.3599 8.19225C10.7001 7.90775 10.9611 7.5401 11.1174 7.125H5.25086C5.05195 7.125 4.86119 7.04598 4.72053 6.90533C4.57988 6.76468 4.50086 6.57391 4.50086 6.375C4.50086 6.17609 4.57988 5.98532 4.72053 5.84467C4.86119 5.70402 5.05195 5.625 5.25086 5.625H11.1174C10.9611 5.2099 10.7001 4.84225 10.3599 4.55775C9.76736 4.05075 8.94311 3.75 8.06411 3.75H5.25086C5.05195 3.75 4.86119 3.67098 4.72053 3.53033C4.57988 3.38968 4.50086 3.19891 4.50086 3C4.50086 2.80109 4.57988 2.61032 4.72053 2.46967C4.86119 2.32902 5.05195 2.25 5.25086 2.25H8.06336L8.19836 2.2515L8.25086 2.25H13.5009C13.6998 2.25 13.8905 2.32902 14.0312 2.46967C14.1718 2.61032 14.2509 2.80109 14.2509 3C14.2509 3.19891 14.1718 3.38968 14.0312 3.53033C13.8905 3.67098 13.6998 3.75 13.5009 3.75H11.6821C12.1782 4.27232 12.5212 4.92094 12.6736 5.625H13.5009C13.6998 5.625 13.8905 5.70402 14.0312 5.84467C14.1718 5.98532 14.2509 6.17609 14.2509 6.375C14.2509 6.57391 14.1718 6.76468 14.0312 6.90533C13.8905 7.04598 13.6998 7.125 13.5009 7.125H12.6736C12.4966 7.97025 12.0249 8.7405 11.3364 9.33075C10.4514 10.089 9.27311 10.5 8.06336 10.5H7.28486L11.8884 14.43C12.0342 14.5607 12.1232 14.7433 12.1362 14.9387C12.1492 15.1342 12.0853 15.3269 11.958 15.4758C11.8308 15.6247 11.6503 15.7179 11.4552 15.7355C11.2602 15.7531 11.066 15.6937 10.9141 15.57L4.76636 10.3222L4.75886 10.3155C4.62638 10.2011 4.53826 10.0439 4.50988 9.87115C4.48151 9.69844 4.51468 9.52125 4.60361 9.3705C4.66988 9.25755 4.76456 9.16391 4.87825 9.09891C4.99193 9.03391 5.12066 8.99981 5.25161 9Z" fill="#7F7F7F"/>
</svg>
