<svg width="18" height="18" viewBox="0 0 18 18" fill="none" xmlns="http://www.w3.org/2000/svg">
<path fill-rule="evenodd" clip-rule="evenodd" d="M11.9998 3.9375C12.0751 3.93755 12.1496 3.95272 12.2189 3.98209C12.2882 4.01146 12.3509 4.05445 12.4033 4.1085L15.4033 7.20225C15.4575 7.25465 15.5006 7.3174 15.53 7.38679C15.5595 7.45617 15.5747 7.53076 15.5748 7.60614C15.5749 7.68152 15.5598 7.75614 15.5304 7.82558C15.5011 7.89501 15.4581 7.95784 15.404 8.01033C15.3499 8.06282 15.2858 8.1039 15.2155 8.13113C15.1452 8.15836 15.0702 8.17119 14.9948 8.16885C14.9195 8.16651 14.8454 8.14905 14.7769 8.11751C14.7085 8.08597 14.647 8.041 14.5963 7.98525L12.5623 5.88825V13.5C12.5623 13.6492 12.503 13.7923 12.3975 13.8977C12.2921 14.0032 12.149 14.0625 11.9998 14.0625C11.8506 14.0625 11.7075 14.0032 11.602 13.8977C11.4966 13.7923 11.4373 13.6492 11.4373 13.5V5.8875L9.4033 7.98525C9.35256 8.041 9.29113 8.08597 9.22267 8.11751C9.15421 8.14905 9.0801 8.16651 9.00476 8.16885C8.92942 8.17119 8.85438 8.15836 8.78409 8.13113C8.7138 8.1039 8.6497 8.06282 8.5956 8.01033C8.54151 7.95784 8.49851 7.89501 8.46917 7.82558C8.43983 7.75614 8.42474 7.68152 8.4248 7.60614C8.42487 7.53076 8.44008 7.45617 8.46954 7.38679C8.499 7.3174 8.54211 7.25465 8.5963 7.20225L11.5963 4.1085C11.6487 4.05445 11.7114 4.01146 11.7807 3.98209C11.85 3.95272 11.9245 3.93755 11.9998 3.9375ZM5.9998 3.9375C6.14898 3.9375 6.29205 3.99676 6.39754 4.10225C6.50303 4.20774 6.5623 4.35082 6.5623 4.5V12.1125L8.5963 10.0147C8.64703 9.959 8.70846 9.91403 8.77692 9.88249C8.84538 9.85095 8.91949 9.83349 8.99483 9.83115C9.07017 9.82881 9.14521 9.84164 9.2155 9.86887C9.28579 9.8961 9.34989 9.93718 9.40399 9.98967C9.45808 10.0422 9.50108 10.105 9.53042 10.1744C9.55976 10.2439 9.57485 10.3185 9.57479 10.3939C9.57472 10.4692 9.55951 10.5438 9.53005 10.6132C9.50059 10.6826 9.45748 10.7454 9.4033 10.7978L6.4033 13.8915C6.35087 13.9455 6.28814 13.9884 6.21883 14.0177C6.14953 14.047 6.07504 14.0621 5.9998 14.0621C5.92455 14.0621 5.85006 14.047 5.78076 14.0177C5.71145 13.9884 5.64872 13.9455 5.5963 13.8915L2.5963 10.7978C2.54211 10.7454 2.499 10.6826 2.46954 10.6132C2.44008 10.5438 2.42487 10.4692 2.4248 10.3939C2.42474 10.3185 2.43983 10.2439 2.46917 10.1744C2.49851 10.105 2.54151 10.0422 2.59561 9.98967C2.6497 9.93718 2.7138 9.8961 2.78409 9.86887C2.85438 9.84164 2.92942 9.82881 3.00476 9.83115C3.0801 9.83349 3.15421 9.85095 3.22267 9.88249C3.29113 9.91403 3.35256 9.959 3.4033 10.0147L5.4373 12.1118V4.5C5.4373 4.35082 5.49656 4.20774 5.60205 4.10225C5.70754 3.99676 5.85061 3.9375 5.9998 3.9375Z" fill="url(#paint0_linear_77_5466)"/>
<defs>
<linearGradient id="paint0_linear_77_5466" x1="2.4248" y1="3.9375" x2="12.2134" y2="16.6506" gradientUnits="userSpaceOnUse">
<stop stop-color="#ED4B22"/>
<stop offset="1" stop-color="#E8047E"/>
</linearGradient>
</defs>
</svg>
