<svg width="65" height="65" viewBox="0 0 65 65" fill="none" xmlns="http://www.w3.org/2000/svg">
<g opacity="0.1">
<path fill-rule="evenodd" clip-rule="evenodd" d="M59.1663 32.4997C59.1663 47.2277 47.2277 59.1663 32.4997 59.1663C17.7717 59.1663 5.83301 47.2277 5.83301 32.4997C5.83301 17.7717 17.7717 5.83301 32.4997 5.83301C47.2277 5.83301 59.1663 17.7717 59.1663 32.4997ZM40.4997 24.4997C40.4997 26.6214 39.6568 28.6562 38.1565 30.1565C36.6562 31.6568 34.6214 32.4997 32.4997 32.4997C30.3779 32.4997 28.3431 31.6568 26.8428 30.1565C25.3425 28.6562 24.4997 26.6214 24.4997 24.4997C24.4997 22.3779 25.3425 20.3431 26.8428 18.8428C28.3431 17.3425 30.3779 16.4997 32.4997 16.4997C34.6214 16.4997 36.6562 17.3425 38.1565 18.8428C39.6568 20.3431 40.4997 22.3779 40.4997 24.4997ZM32.4997 55.1663C37.0764 55.1737 41.5471 53.7888 45.3183 51.1957C46.929 50.089 47.617 47.9823 46.6783 46.2677C44.7397 42.713 40.7397 40.4997 32.4997 40.4997C24.2597 40.4997 20.2597 42.713 18.3183 46.2677C17.3823 47.9823 18.0703 50.089 19.681 51.1957C23.4522 53.7888 27.9229 55.1737 32.4997 55.1663Z" fill="white"/>
</g>
</svg>
