<svg width="32" height="32" viewBox="0 0 32 32" fill="none" xmlns="http://www.w3.org/2000/svg">
<path d="M16.0003 13.3332C18.9458 13.3332 21.3337 10.9454 21.3337 7.99984C21.3337 5.05432 18.9458 2.6665 16.0003 2.6665C13.0548 2.6665 10.667 5.05432 10.667 7.99984C10.667 10.9454 13.0548 13.3332 16.0003 13.3332Z" stroke="#F2F2F2" stroke-width="1.5"/>
<path d="M16.0003 17.333C19.4777 17.333 22.511 18.4197 24.1177 20.0317M20.779 27.249C19.3817 27.725 17.747 27.9997 16.0003 27.9997C10.8457 27.9997 6.66699 25.613 6.66699 22.6663C6.66699 20.853 8.24966 19.253 10.667 18.289" stroke="#F2F2F2" stroke-width="1.5" stroke-linecap="round"/>
<path d="M24 24.6665L25.3333 25.9998L28 22.6665" stroke="#F2F2F2" stroke-width="1.5" stroke-linecap="round" stroke-linejoin="round"/>
</svg>
