<svg width="32" height="32" viewBox="0 0 32 32" fill="none" xmlns="http://www.w3.org/2000/svg">
<path d="M26.082 9.33317C26.1536 8.92455 26.1349 8.50522 26.0272 8.10459C25.9196 7.70397 25.7255 7.33177 25.4587 7.01412C25.1918 6.69648 24.8587 6.44108 24.4827 6.26586C24.1067 6.09063 23.6969 5.99984 23.282 5.99984H8.71669C8.30185 5.99984 7.89203 6.09063 7.51601 6.26586C7.13999 6.44108 6.80687 6.69648 6.54005 7.01412C6.27322 7.33177 6.07916 7.70397 5.97147 8.10459C5.86378 8.50522 5.84508 8.92455 5.91669 9.33317M23.3327 5.99984C23.37 5.65317 23.39 5.48117 23.39 5.3385C23.3915 4.67943 23.1488 4.04316 22.7088 3.55246C22.2688 3.06175 21.6627 2.75136 21.0074 2.68117C20.866 2.6665 20.6927 2.6665 20.346 2.6665H11.6527C11.306 2.6665 11.1314 2.6665 10.99 2.68117C10.3347 2.75136 9.72857 3.06175 9.28858 3.55246C8.8486 4.04316 8.60591 4.67943 8.60736 5.3385C8.60736 5.48117 8.62602 5.6545 8.66469 5.99984M19.4407 18.1545C20.186 18.6158 20.186 19.8105 19.4407 20.2718L14.946 23.0585C14.222 23.5078 13.3327 22.9252 13.3327 21.9998V16.4265C13.3327 15.5025 14.222 14.9198 14.946 15.3678L19.4407 18.1545Z" stroke="#F2F2F2" stroke-width="1.5"/>
<path d="M3.17845 18.3903C2.58245 14.1717 2.28512 12.0637 3.54912 10.697C4.81312 9.33301 7.06379 9.33301 11.5625 9.33301H20.4371C24.9358 9.33301 27.1865 9.33301 28.4505 10.6983C29.7145 12.0637 29.4158 14.1717 28.8211 18.3903L28.2585 22.3903C27.7918 25.697 27.5585 27.3517 26.3625 28.3423C25.1665 29.333 23.4025 29.333 19.8731 29.333H12.1265C8.59845 29.333 6.83312 29.333 5.63712 28.3423C4.44112 27.3517 4.20779 25.6983 3.74112 22.3903L3.17845 18.3903Z" stroke="#F2F2F2" stroke-width="1.5"/>
</svg>
