<svg width="221" height="220" viewBox="0 0 221 220" fill="none" xmlns="http://www.w3.org/2000/svg">
<path d="M158.448 138.345H190.242V113.819H158.448V138.345Z" fill="#3A3A3A"/>
<path d="M160.718 136.202H164.551V131.872H160.718V136.202Z" fill="#ECECEC"/>
<path d="M180.544 113.881H176.932V119.112H180.544V113.881Z" fill="#2D2D2D"/>
<path d="M180.544 133.038H176.932V138.27H180.544V133.038Z" fill="#2D2D2D"/>
<path d="M166.381 138.512C166.323 138.512 166.279 133.117 166.279 126.465C166.279 119.812 166.323 114.417 166.381 114.417C166.438 114.417 166.482 119.812 166.482 126.465C166.482 133.117 166.438 138.512 166.381 138.512Z" fill="#666666"/>
<path d="M145.481 180.576H200.34V138.261H145.481V180.576Z" fill="#3A3A3A"/>
<path d="M149.401 176.884H156.01V169.413H149.401V176.884Z" fill="#ECECEC"/>
<path d="M183.601 138.371H177.371V147.4H183.601V138.371Z" fill="#2D2D2D"/>
<path d="M183.601 171.419H177.371V180.448H183.601V171.419Z" fill="#2D2D2D"/>
<path d="M159.174 180.866C159.077 180.866 158.998 171.56 158.998 160.081C158.998 148.601 159.077 139.295 159.174 139.295C159.271 139.295 159.346 148.601 159.346 160.081C159.346 171.56 159.271 180.866 159.174 180.866Z" fill="#666666"/>
<path d="M198.598 50.2524L201.537 56.2056L208.107 57.1604L203.355 61.798L204.477 68.3408L198.598 65.252L192.72 68.3408L193.842 61.798L189.09 57.1604L195.659 56.2056L198.598 50.2524Z" fill="#3A3A3A"/>
<path d="M23.6041 127.146L25.4565 130.9L29.5969 131.498L26.6005 134.42L27.3089 138.547L23.6041 136.598L19.8993 138.547L20.6077 134.42L17.6113 131.498L21.7517 130.9L23.6041 127.146Z" fill="#3A3A3A"/>
<path d="M25.9018 94.4502L30.0158 102.784L39.2118 104.121L32.559 110.607L34.1298 119.768L25.9018 115.443L17.6782 119.768L19.249 110.607L12.5918 104.121L21.7878 102.784L25.9018 94.4502Z" fill="#3A3A3A"/>
<path d="M195.98 77.1406L197.753 80.7354L201.717 81.3118L198.849 84.1058L199.526 88.0526L195.98 86.1914L192.433 88.0526L193.111 84.1058L190.242 81.3118L194.207 80.7354L195.98 77.1406Z" fill="#3A3A3A"/>
<path d="M137.802 18.9507L139.575 22.5411L143.54 23.1175L140.671 25.9159L141.348 29.8627L137.802 27.9971L134.256 29.8627L134.933 25.9159L132.064 23.1175L136.029 22.5411L137.802 18.9507Z" fill="#3A3A3A"/>
<path d="M178.357 57.3804L179.518 59.73L182.114 60.1084L180.236 61.9388L180.68 64.5216L178.357 63.3028L176.038 64.5216L176.482 61.9388L174.604 60.1084L177.2 59.73L178.357 57.3804Z" fill="#3A3A3A"/>
<path d="M71.305 176.048L73.5666 180.624L78.6178 181.359L74.9614 184.923L75.8282 189.957L71.305 187.581L66.7862 189.957L67.6486 184.923L63.9922 181.359L69.0478 180.624L71.305 176.048Z" fill="#3A3A3A"/>
<path d="M77.2728 171.494L78.2056 173.386L80.2956 173.69L78.782 175.164L79.1384 177.245L77.2728 176.259L75.4072 177.245L75.7636 175.164L74.25 173.69L76.34 173.386L77.2728 171.494Z" fill="#3A3A3A"/>
<path d="M160.717 153.965L162.706 157.991L167.15 158.638L163.934 161.77L164.695 166.197L160.717 164.107L156.744 166.197L157.505 161.77L154.289 158.638L158.733 157.991L160.717 153.965Z" fill="#ED4B22"/>
<path d="M170.2 150.396L171.137 152.293L173.227 152.596L171.713 154.075L172.07 156.16L170.2 155.175L168.325 156.16L168.686 154.075L167.168 152.596L169.262 152.293L170.2 150.396Z" fill="#ED4B22"/>
<path d="M157.774 45.6104L159.34 40.744C157.848 37.7377 157.394 34.3211 158.051 31.0295C158.708 27.7379 160.439 24.7573 162.972 22.5546C165.504 20.352 168.696 19.0517 172.047 18.8574C175.398 18.6632 178.719 19.5861 181.489 21.4815C184.259 23.3768 186.322 26.1376 187.355 29.3312C188.388 32.5248 188.333 35.9709 187.197 39.1296C186.062 42.2882 183.911 44.981 181.081 46.786C178.251 48.591 174.902 49.4062 171.559 49.104C168.297 48.8819 165.211 47.546 162.816 45.32L157.774 45.6104Z" fill="#2D2D2D"/>
<path d="M157.773 45.6103L158.108 45.5839L159.08 45.5135L162.816 45.2583C164.668 46.9709 166.948 48.1507 169.416 48.6727C170.178 48.842 170.951 48.9523 171.73 49.0027L172.962 49.0511C173.376 49.0511 173.803 49.0027 174.229 48.9807C178.089 48.6304 181.666 46.8074 184.217 43.8899C185.655 42.2693 186.723 40.3549 187.346 38.2799C187.984 36.0626 188.113 33.7298 187.724 31.4555C187.627 30.8708 187.492 30.2932 187.319 29.7263C187.241 29.4392 187.146 29.157 187.033 28.8815C186.923 28.5999 186.827 28.3183 186.708 28.0411C186.218 26.922 185.597 25.8646 184.86 24.8907C184.492 24.4052 184.094 23.9437 183.667 23.5091C183.46 23.2875 183.24 23.0788 183.007 22.8843C182.783 22.6863 182.567 22.4707 182.33 22.2903L181.608 21.7535L181.247 21.4895L180.86 21.2607L180.099 20.8207C179.839 20.6755 179.567 20.5655 179.303 20.4335C177.28 19.4765 175.069 18.9852 172.832 18.9959C170.595 19.0065 168.388 19.5189 166.375 20.4951C162.887 22.1703 160.178 25.1249 158.812 28.7451C158.737 28.9475 158.667 29.1499 158.596 29.3479C158.517 29.5433 158.453 29.7449 158.407 29.9507C158.306 30.3555 158.209 30.7559 158.112 31.1475C157.979 31.9148 157.887 32.6889 157.839 33.4663C157.741 35.981 158.27 38.4806 159.379 40.7395L158.2 44.3387L157.888 45.2715C157.817 45.4827 157.778 45.5927 157.778 45.5927C157.778 45.5927 157.804 45.4915 157.87 45.2847L158.152 44.3607L159.283 40.7131V40.7483C158.144 38.4852 157.593 35.9718 157.681 33.4399C157.722 32.6538 157.809 31.8708 157.941 31.0947C158.037 30.6987 158.139 30.2939 158.235 29.8847C158.282 29.6766 158.344 29.4722 158.42 29.2731C158.495 29.0707 158.565 28.8683 158.64 28.6615C159.375 26.6877 160.512 24.8879 161.978 23.3762C163.445 21.8644 165.209 20.6736 167.159 19.8791C169.11 19.0845 171.204 18.7036 173.31 18.7604C175.415 18.8172 177.486 19.3105 179.391 20.2091C179.659 20.3367 179.936 20.4511 180.2 20.6007L180.975 21.0627L181.362 21.2959L181.731 21.5643L182.462 22.1055C182.704 22.2947 182.924 22.5103 183.153 22.7083C183.387 22.9069 183.61 23.1185 183.821 23.3419C184.254 23.7854 184.658 24.2557 185.031 24.7499C185.783 25.7294 186.417 26.7942 186.919 27.9223C187.038 28.2039 187.135 28.4943 187.245 28.7759C187.361 29.0627 187.46 29.3567 187.539 29.6559C187.713 30.2329 187.849 30.8209 187.944 31.4159C188.342 33.7239 188.209 36.0921 187.557 38.3415C186.932 40.456 185.852 42.4083 184.393 44.0615C181.803 47.0066 178.18 48.8434 174.273 49.1919C173.833 49.1919 173.393 49.2535 172.989 49.2535L171.743 49.2007C170.957 49.1457 170.176 49.031 169.407 48.8575C166.93 48.3151 164.648 47.1072 162.807 45.3639H162.842L159.071 45.5619L158.112 45.6059C157.879 45.6103 157.773 45.6103 157.773 45.6103Z" fill="#232323"/>
<path d="M164.316 33.4397L166.811 31.2749L171.013 35.5913L180.438 27.7417L182.431 30.2277L170.358 40.0573L164.316 33.4397Z" fill="#ED4B22"/>
<path d="M131.669 153.776L47.2944 172.581C46.806 172.693 46.3004 172.707 45.8067 172.622C45.3129 172.538 44.8408 172.356 44.4175 172.088C43.9942 171.82 43.6281 171.471 43.3402 171.061C43.0524 170.651 42.8485 170.188 42.7404 169.699L15.3768 46.8292C15.2678 46.3424 15.2559 45.8388 15.3418 45.3474C15.4277 44.8559 15.6098 44.3863 15.8775 43.9653C16.1452 43.5443 16.4933 43.1802 16.902 42.894C17.3106 42.6078 17.7717 42.405 18.2588 42.2972L102.633 23.4916C103.12 23.3826 103.624 23.3706 104.116 23.4565C104.608 23.5424 105.078 23.7243 105.499 23.992C105.92 24.2597 106.285 24.6078 106.571 25.0165C106.858 25.4252 107.061 25.8863 107.17 26.3736L134.551 149.244C134.66 149.731 134.672 150.234 134.586 150.726C134.5 151.217 134.318 151.687 134.05 152.108C133.782 152.529 133.434 152.893 133.026 153.179C132.617 153.465 132.156 153.668 131.669 153.776Z" fill="#666666"/>
<path d="M131.669 153.775L131.95 153.696C132.224 153.607 132.488 153.491 132.738 153.349C133.148 153.107 133.511 152.793 133.807 152.42C134.211 151.91 134.476 151.303 134.577 150.66C134.641 150.271 134.641 149.874 134.577 149.485C134.507 149.076 134.397 148.645 134.3 148.196C134.097 147.316 133.86 146.313 133.64 145.248C133.162 143.116 132.612 140.662 131.99 137.887C129.513 126.812 125.931 110.787 121.505 90.983C119.305 81.083 116.876 70.237 114.275 58.5902C112.979 52.7705 111.637 46.7572 110.249 40.5502C109.56 37.4468 108.859 34.3008 108.146 31.1122C107.785 29.5194 107.429 27.9134 107.064 26.2986C106.865 25.4938 106.402 24.7789 105.749 24.269C105.095 23.7591 104.289 23.4837 103.46 23.487C103.047 23.4962 102.636 23.5553 102.237 23.663L101.005 23.9358L98.5278 24.4902L93.5294 25.6034L83.3567 27.8738L62.3951 32.5598L18.2895 42.3806C17.3572 42.5873 16.5403 43.1451 16.0085 43.9382C15.4767 44.7314 15.2709 45.6989 15.4339 46.6398C15.8343 48.5098 16.2655 50.3842 16.6747 52.2498C17.5077 55.9752 18.3335 59.6785 19.1519 63.3598L23.9919 85.1003C27.1687 99.3519 30.2311 113.08 33.1483 126.192C36.0655 139.304 38.8331 151.712 41.4291 163.376C41.7517 164.843 42.0729 166.286 42.3927 167.706C42.5555 168.419 42.7007 169.14 42.8723 169.84C43.0571 170.529 43.4358 171.15 43.9635 171.631C44.4877 172.104 45.134 172.421 45.8291 172.546C46.1738 172.602 46.5244 172.612 46.8719 172.577C47.2151 172.533 47.5627 172.449 47.9059 172.37L52.0023 171.459L67.5475 168.001L114.46 157.577L127.22 154.752L130.538 154.022L131.669 153.775L130.542 154.039L127.225 154.787L114.465 157.643L67.5606 168.128L52.0331 171.6L47.9367 172.515C47.5935 172.59 47.2503 172.678 46.8895 172.726C46.5287 172.763 46.1647 172.751 45.8071 172.691C45.0791 172.565 44.4024 172.233 43.8567 171.735C43.3111 171.237 42.9191 170.593 42.7271 169.879C42.5511 169.171 42.4059 168.458 42.2431 167.745C41.9233 166.317 41.6007 164.874 41.2751 163.416C38.6791 151.769 35.9027 139.326 32.9811 126.231C30.0595 113.137 26.9971 99.3915 23.8159 85.1399L18.9759 63.4038C18.1575 59.7254 17.3317 56.0192 16.4987 52.285C16.0851 50.4194 15.6583 48.5538 15.2535 46.6662C15.0841 45.6805 15.3009 44.6675 15.8589 43.8375C16.4169 43.0074 17.2732 42.4243 18.2499 42.209L62.3599 32.375L83.3346 27.7198L93.503 25.4538L98.5014 24.3406L100.983 23.7598L102.215 23.487C102.622 23.3816 103.04 23.3254 103.46 23.3198C104.319 23.3218 105.153 23.6096 105.83 24.1378C106.507 24.666 106.989 25.4046 107.2 26.237C107.561 27.8562 107.922 29.4578 108.278 31.055C108.997 34.2465 109.704 37.3881 110.399 40.4798C111.775 46.6838 113.114 52.6972 114.416 58.5198C117.008 70.1666 119.419 81.0126 121.623 90.9171C126.023 110.717 129.587 126.755 132.051 137.834C132.663 140.602 133.209 143.066 133.684 145.195C133.917 146.265 134.124 147.246 134.335 148.148C134.432 148.588 134.542 149.028 134.608 149.437C134.674 149.83 134.674 150.232 134.608 150.625C134.507 151.28 134.237 151.898 133.825 152.416C133.524 152.788 133.159 153.102 132.747 153.344C132.493 153.487 132.225 153.6 131.946 153.683L131.669 153.775Z" fill="#232323"/>
<g opacity="0.3">
<path d="M51.5712 168.229L128.448 150.656L126.019 135.59L121.659 127.146L48.1172 156.032L51.5712 168.229Z" fill="black"/>
</g>
<g opacity="0.3">
<path d="M83.6699 27.9971L86.5783 32.7975L87.1415 35.3451L85.1703 35.7851L83.6699 27.9971Z" fill="black"/>
</g>
<path d="M19.7539 47.5417L46.4267 167.222L130.031 148.592L125.262 127.191L103.358 28.9077L19.7539 47.5417Z" fill="#ECECEC"/>
<path d="M19.7544 47.5418L103.354 28.8374H103.425V28.9122C110.843 62.1718 120.096 103.677 130.111 148.592V148.685H130.023L46.4228 167.31H46.3436V167.226C30.64 96.5533 19.9128 48.259 19.75 47.5462C19.9128 48.2766 30.7104 96.5577 46.5064 167.226L46.4052 167.164L130.005 148.522L129.935 148.632C119.934 103.725 110.689 62.2202 103.284 28.9518L103.372 29.009L19.7544 47.5418Z" fill="#232323"/>
<path d="M43.2975 33.3016L80.1675 25.0872C80.8885 24.9266 81.6438 25.0589 82.2672 25.4552C82.8906 25.8514 83.3311 26.4791 83.4917 27.2001L85.6216 36.7601L43.3059 46.1877L41.1779 36.6363C41.0969 36.2781 41.0876 35.9074 41.1504 35.5456C41.2132 35.1838 41.347 34.838 41.544 34.528C41.7409 34.2181 41.9973 33.9502 42.2982 33.7397C42.5992 33.5292 42.9388 33.3803 43.2975 33.3016Z" fill="#232323"/>
<path d="M66.091 23.3857L55.3242 25.7837L58.6374 34.7333L66.7466 32.9249L66.091 23.3857Z" fill="#232323"/>
<path d="M80.1665 25.0796C80.1665 25.128 71.9341 27.0068 61.7568 29.2772C51.5796 31.5476 43.312 33.356 43.2988 33.3076C43.2856 33.2592 51.5312 31.3804 61.7173 29.11C71.9033 26.8396 80.1401 25.0444 80.1665 25.0796Z" fill="#0F0F0F"/>
<path d="M43.8218 43.9999C43.7734 43.9999 43.3466 42.2839 42.8714 40.1455C42.3962 38.0071 42.0442 36.2603 42.097 36.2471C42.1498 36.2339 42.5722 37.9631 43.0474 40.1059C43.5226 42.2487 43.8702 43.9999 43.8218 43.9999Z" fill="#0F0F0F"/>
<path d="M83.6025 34.1616C83.249 33.0041 82.9553 31.8292 82.7225 30.6416C82.4314 29.4808 82.1993 28.3059 82.0273 27.1216C82.3801 28.2718 82.6738 29.4393 82.9073 30.6196C83.1993 31.7876 83.4313 32.9698 83.6025 34.1616Z" fill="#0F0F0F"/>
<path d="M81.926 36.2514C81.926 36.2998 73.4736 38.227 63.028 40.5546C52.5824 42.8822 44.108 44.7346 44.086 44.6818C44.064 44.629 52.534 42.7062 63.006 40.3786C73.478 38.051 81.8996 36.203 81.926 36.2514Z" fill="#0F0F0F"/>
<path d="M59.6583 71.0644C59.6583 71.1172 53.9603 72.4284 46.8983 74.0036C39.8363 75.5788 34.1383 76.8064 34.1075 76.758C34.0767 76.7096 39.8275 75.394 46.8675 73.8232C53.9075 72.2524 59.6451 71.016 59.6583 71.0644Z" fill="#232323"/>
<path d="M102.211 66.2725C102.211 66.3253 87.308 69.6913 68.9028 73.7921C50.4976 77.8929 35.5596 81.1797 35.5508 81.1313C35.542 81.0829 50.4492 77.7125 68.8632 73.6117C87.2772 69.5109 102.202 66.2241 102.211 66.2725Z" fill="#232323"/>
<path d="M103.131 70.3998C103.131 70.4482 88.224 73.8142 69.8188 77.9194C51.4136 82.0246 36.48 85.307 36.4668 85.2542C36.4536 85.2014 51.3696 81.8398 69.7792 77.739C88.1888 73.6382 103.118 70.3382 103.131 70.3998Z" fill="#232323"/>
<path d="M104.045 74.5005C104.045 74.5489 89.1425 77.9149 70.7373 82.0157C52.3321 86.1165 37.3941 89.4077 37.3809 89.3549C37.3677 89.3021 52.2837 85.9405 70.6977 81.8353C89.1117 77.7301 104.032 74.4521 104.045 74.5005Z" fill="#232323"/>
<path d="M104.961 78.6149C104.961 78.6633 90.058 82.0293 71.6528 86.1301C53.2476 90.2309 38.3096 93.5177 38.3008 93.4693C38.292 93.4209 53.1992 90.0549 71.6132 85.9497C90.0272 81.8445 104.952 78.5621 104.961 78.6149Z" fill="#232323"/>
<path d="M105.881 82.7197C105.881 82.7725 90.9735 86.1385 72.5683 90.2393C54.1631 94.3401 39.2207 97.6313 39.2207 97.5829C39.2207 97.5345 54.1235 94.1685 72.5331 90.0633C90.9427 85.9581 105.868 82.6757 105.881 82.7197Z" fill="#232323"/>
<path d="M52.1426 111.676C52.1247 111.632 52.1114 111.586 52.103 111.54L52.0062 111.148C51.9226 110.792 51.8038 110.294 51.6586 109.674C51.3638 108.402 50.9502 106.616 50.4574 104.478L50.5542 104.539L43.3382 106.158C43.3382 106.158 43.4702 105.952 43.4086 106.048V106.079V106.141L43.435 106.264L43.4922 106.51L43.5978 106.999C43.6726 107.324 43.743 107.646 43.8134 107.967C43.9542 108.6 44.095 109.225 44.227 109.832C44.4954 111.042 44.7462 112.186 44.9794 113.238L44.8826 113.176L50.0966 112.054L51.5794 111.746L51.9754 111.672L52.1162 111.645C52.1162 111.645 52.081 111.645 51.993 111.685L51.619 111.777L50.167 112.12L44.9398 113.366H44.8606V113.286L44.095 109.885C43.9586 109.278 43.8178 108.653 43.655 108.02C43.5846 107.698 43.5098 107.377 43.4394 107.052C43.3998 106.893 43.3646 106.726 43.3294 106.563L43.2722 106.317L43.2458 106.194V106.132V106.101V106.079C43.1842 106.18 43.3294 105.947 43.3162 105.969L50.5366 104.372H50.6158V104.451L51.751 109.731C51.8786 110.347 51.9798 110.84 52.0546 111.192C52.0854 111.35 52.1074 111.474 52.1294 111.575C52.1382 111.608 52.1426 111.642 52.1426 111.676Z" fill="#232323"/>
<path d="M105.78 93.887L55.4375 105.103L56.3733 109.303L106.716 98.0873L105.78 93.887Z" fill="#666666"/>
<path d="M54.9325 124.199C54.9159 124.153 54.9027 124.106 54.8929 124.058C54.8665 123.957 54.8357 123.825 54.7961 123.666C54.7125 123.31 54.5937 122.817 54.4485 122.197C54.1537 120.921 53.7401 119.117 53.2473 116.996L53.3441 117.057L46.1281 118.677C46.1281 118.703 46.2601 118.47 46.1985 118.571V118.593V118.624V118.685L46.2249 118.809L46.2821 119.055C46.3173 119.222 46.3525 119.385 46.3921 119.548L46.6033 120.511C46.7441 121.149 46.8849 121.77 47.0169 122.377C47.2853 123.587 47.5361 124.731 47.7693 125.783L47.6725 125.721L52.8909 124.603L54.3693 124.295L54.7653 124.216C54.8112 124.203 54.8584 124.196 54.9061 124.194L54.7873 124.229L54.4089 124.322L52.9569 124.669L47.7077 125.879H47.6285V125.8L46.8629 122.399C46.7265 121.792 46.5857 121.167 46.4229 120.533C46.3525 120.217 46.2777 119.891 46.2073 119.57C46.1721 119.407 46.1325 119.244 46.0973 119.077L46.0401 118.831L46.0137 118.707V118.646V118.593L46.0841 118.479L53.3001 116.903H53.3793V116.978C53.8457 119.147 54.2593 120.938 54.5145 122.258C54.6421 122.874 54.7433 123.367 54.8181 123.719C54.8489 123.877 54.8709 124.001 54.8929 124.102C54.9102 124.132 54.9235 124.165 54.9325 124.199Z" fill="#232323"/>
<path d="M108.567 106.409L58.2246 117.625L59.1604 121.826L109.503 110.61L108.567 106.409Z" fill="#666666"/>
<path d="M57.7232 136.717C57.7232 136.717 57.7232 136.664 57.6836 136.576C57.644 136.488 57.6264 136.343 57.5868 136.184C57.5032 135.828 57.3844 135.335 57.2392 134.715C56.9444 133.443 56.5308 131.635 56.038 129.514L56.1348 129.575L48.9012 131.195C48.9012 131.221 49.0332 130.988 48.9716 131.089V131.12V131.151V131.212L48.998 131.335L49.0552 131.582C49.0904 131.749 49.1256 131.912 49.1652 132.075L49.3764 133.038C49.5172 133.676 49.658 134.297 49.79 134.904L50.5424 138.309L50.4456 138.252L55.664 137.13L57.1424 136.822L57.5384 136.743C57.5852 136.738 57.6324 136.738 57.6792 136.743L57.5604 136.778L57.182 136.871L55.73 137.218L50.4808 138.428H50.4016V138.349C50.1684 137.302 49.9088 136.149 49.636 134.948C49.4996 134.341 49.3588 133.72 49.196 133.082C49.1256 132.765 49.0508 132.444 48.9804 132.119C48.9452 131.956 48.9056 131.793 48.8704 131.63L48.8176 131.384L48.7868 131.261V131.195V131.12C48.7252 131.217 48.8704 130.983 48.8572 131.01L56.0776 129.413H56.1568V129.492L57.292 134.772C57.4196 135.388 57.5208 135.881 57.5956 136.237C57.6264 136.391 57.6528 136.514 57.6704 136.615C57.6926 136.647 57.7103 136.681 57.7232 136.717Z" fill="#232323"/>
<path d="M111.36 118.932L61.0176 130.148L61.9534 134.348L112.296 123.132L111.36 118.932Z" fill="#666666"/>
<path d="M45.209 109.093L45.9658 107.901L48.2142 109.15L51.1094 104.786L52.227 105.56L48.4958 111.06L45.209 109.093Z" fill="#ED4B22"/>
<path d="M47.9062 121.193L48.6631 120.001L50.9115 121.251L53.8022 116.886L54.9243 117.66L51.1886 123.156L47.9062 121.193Z" fill="#ED4B22"/>
<path d="M50.6738 133.597L51.4306 132.409L53.6746 133.659L56.5698 129.294L57.6874 130.064L53.9562 135.564L50.6738 133.597Z" fill="#ED4B22"/>
<path d="M73.717 149.16C73.717 149.213 69.4754 150.203 64.2218 151.36C58.9682 152.517 54.7002 153.437 54.6914 153.388C54.6826 153.34 58.9286 152.35 64.1822 151.188C69.4358 150.027 73.7038 149.116 73.717 149.16Z" fill="#232323"/>
<path d="M83.1933 146.898C82.0448 147.252 80.8787 147.546 79.6997 147.778C78.5386 148.067 77.3638 148.297 76.1797 148.469C77.3269 148.116 78.4915 147.822 79.6689 147.589C81.6005 147.162 83.1845 146.85 83.1933 146.898Z" fill="#232323"/>
<path d="M114.583 137.02C114.583 137.069 110.769 137.966 106.043 139.018C101.317 140.069 97.4717 140.883 97.4629 140.835C97.4541 140.787 101.273 139.893 106.003 138.837C110.733 137.781 114.575 136.972 114.583 137.02Z" fill="#232323"/>
<path d="M110.5 148.601C110.5 148.601 110.54 148.482 110.584 148.253C110.642 147.915 110.624 147.568 110.531 147.237C110.375 146.714 110.171 146.206 109.924 145.719C109.573 145.073 109.367 144.358 109.321 143.624C109.332 143.173 109.436 142.729 109.629 142.32C109.821 141.912 110.097 141.548 110.439 141.253C110.839 140.921 111.318 140.696 111.829 140.602C112.34 140.507 112.868 140.545 113.36 140.712C113.901 140.876 114.384 141.192 114.751 141.622C114.946 141.854 115.062 142.143 115.081 142.445C115.086 142.608 115.038 142.768 114.946 142.902C114.853 143.036 114.72 143.136 114.566 143.189C114.278 143.282 113.984 143.354 113.686 143.404L112.806 143.585C112.216 143.704 111.618 143.809 111.002 143.888C109.809 144.061 108.598 144.068 107.403 143.91C106.863 143.794 106.299 143.885 105.823 144.166C105.445 144.547 105.125 144.981 104.873 145.455C104.72 145.688 104.507 145.877 104.257 146C104.002 146.113 103.715 146.125 103.452 146.036C102.999 145.834 102.568 145.587 102.167 145.296C101.98 145.173 101.768 145.093 101.546 145.063C101.339 145.04 101.13 145.092 100.957 145.208C100.652 145.487 100.401 145.818 100.213 146.185C100.013 146.501 99.7396 146.763 99.4163 146.95C99.093 147.137 98.7294 147.243 98.3563 147.259C97.792 147.281 97.2406 147.086 96.8163 146.713C96.5498 146.483 96.3404 146.194 96.2047 145.868C96.1572 145.757 96.1233 145.64 96.1035 145.521C96.1035 145.521 96.1431 145.64 96.2399 145.855C96.3826 146.166 96.5948 146.44 96.8603 146.656C97.2741 147.007 97.806 147.186 98.3475 147.158C98.7034 147.139 99.0495 147.035 99.3561 146.853C99.6627 146.672 99.9205 146.418 100.108 146.115C100.301 145.73 100.564 145.384 100.882 145.094C101.082 144.955 101.325 144.891 101.568 144.914C101.809 144.95 102.04 145.035 102.246 145.164C102.641 145.444 103.062 145.684 103.504 145.882C103.73 145.958 103.977 145.947 104.195 145.851C104.419 145.74 104.607 145.567 104.736 145.354C104.998 144.867 105.33 144.423 105.722 144.034C105.966 143.86 106.251 143.753 106.549 143.726C106.842 143.695 107.137 143.695 107.429 143.726C108.611 143.879 109.809 143.871 110.989 143.704C111.596 143.624 112.19 143.514 112.78 143.4L113.66 143.224C113.942 143.172 114.221 143.103 114.496 143.017C114.616 142.979 114.721 142.902 114.794 142.799C114.867 142.696 114.904 142.572 114.9 142.445C114.88 142.182 114.779 141.931 114.61 141.728C114.263 141.315 113.805 141.01 113.29 140.848C112.823 140.69 112.324 140.653 111.839 140.74C111.354 140.828 110.899 141.038 110.518 141.35C110.19 141.629 109.924 141.973 109.738 142.361C109.552 142.749 109.448 143.172 109.436 143.602C109.475 144.32 109.667 145.02 109.999 145.657C110.242 146.151 110.438 146.667 110.584 147.197C110.67 147.537 110.678 147.892 110.606 148.236C110.585 148.361 110.55 148.484 110.5 148.601Z" fill="#232323"/>
<path d="M119.596 142.969C119.522 142.999 119.445 143.022 119.367 143.039L118.698 143.198L116.243 143.765C114.175 144.249 111.315 144.927 108.169 145.723C105.023 146.52 102.185 147.29 100.139 147.853L97.7101 148.522L97.0457 148.698C96.9695 148.722 96.8915 148.739 96.8125 148.751C96.8833 148.712 96.9587 148.682 97.0369 148.663L97.6881 148.456C98.2557 148.275 99.0785 148.016 100.099 147.73C102.145 147.131 104.975 146.344 108.125 145.53C111.275 144.716 114.135 144.073 116.217 143.629C117.255 143.405 118.1 143.229 118.685 143.114L119.358 142.987C119.437 142.974 119.516 142.968 119.596 142.969Z" fill="#232323"/>
<path d="M83.505 46.4231L49.332 54.0366L50.7625 60.4572L84.9354 52.8437L83.505 46.4231Z" fill="#666666"/>
<path d="M115.832 150.617L126.872 208.943L136.961 190.3L156.083 201.525L135.786 144.729L115.832 150.617Z" fill="#ED4B22"/>
<g opacity="0.3">
<path d="M119.547 170.232C120.598 170.43 121.681 170.37 122.703 170.056C123.726 169.743 124.657 169.185 125.416 168.432C126.424 167.394 127.093 165.977 128.36 165.282C129.499 164.657 130.903 164.745 132.157 165.093C133.411 165.44 134.59 166.017 135.844 166.342C137.082 166.658 138.369 166.723 139.632 166.536C140.895 166.349 142.108 165.912 143.201 165.251L140.015 156.407L125.231 154.559L118.191 163.029L119.547 170.232Z" fill="black"/>
</g>
<path d="M136.245 187.986C136.183 187.986 134.538 181.94 132.571 174.456C130.604 166.971 129.051 160.882 129.121 160.869C129.192 160.855 130.824 166.905 132.791 174.399C134.758 181.892 136.307 187.968 136.245 187.986Z" fill="#232323"/>
<path d="M117.448 153.648L106.409 211.974L96.3197 193.336L77.1973 204.556L97.4945 147.761L117.448 153.648Z" fill="#ED4B22"/>
<g opacity="0.3">
<path d="M91.4219 164.749C91.4219 164.749 94.5635 167.332 98.3079 166.144C102.052 164.956 104.38 164.701 106.408 166.144C108.437 167.587 113.923 172.282 113.923 172.282L115.195 165.555L107.825 155.435L100.134 156.988L94.6603 157.52L92.6231 161.379L91.4219 164.749Z" fill="black"/>
</g>
<path d="M182.176 100.997C182.176 105.182 176.83 108.785 176.047 112.741C175.242 116.815 178.788 122.188 177.235 125.941C175.682 129.694 169.315 131.041 167.058 134.433C164.8 137.825 165.988 144.179 163.098 147.074C160.207 149.969 153.858 148.751 150.456 151.034C147.055 153.318 145.779 159.627 141.964 161.211C138.216 162.765 132.843 159.218 128.764 160.023C124.804 160.807 121.205 166.153 117.021 166.153C112.836 166.153 109.228 160.807 105.273 160.023C101.198 159.218 95.8261 162.765 92.0729 161.211C88.3197 159.658 86.9777 153.291 83.5853 151.034C80.1929 148.777 73.8393 149.965 70.9397 147.074C68.0401 144.183 69.2633 137.834 66.9797 134.433C64.6961 131.032 58.3865 129.756 56.8069 125.941C55.2273 122.126 58.8001 116.82 57.9949 112.741C57.2117 108.781 51.8613 105.182 51.8613 100.997C51.8613 96.8131 57.2117 93.2051 57.9949 89.2495C58.8001 85.1751 55.2493 79.8027 56.8069 76.0495C58.3645 72.2963 64.7269 70.9499 66.9797 67.5619C69.2325 64.1739 68.0489 57.8159 70.9397 54.9163C73.8305 52.0167 80.1797 53.2399 83.5853 50.9563C86.9909 48.6727 88.2581 42.3631 92.0729 40.7835C95.8877 39.2039 101.194 42.7767 105.273 41.9715C109.233 41.1883 112.836 35.8379 117.021 35.8379C121.205 35.8379 124.809 41.1883 128.764 41.9715C132.839 42.7767 138.211 39.2259 141.964 40.7835C145.779 42.3631 147.064 48.7035 150.456 50.9563C153.849 53.2091 160.202 52.0255 163.098 54.9163C165.993 57.8071 164.774 64.1563 167.058 67.5619C169.341 70.9675 175.651 72.2347 177.235 76.0495C178.819 79.8643 175.242 85.1707 176.047 89.2495C176.83 93.2051 182.176 96.7999 182.176 100.997Z" fill="#ED4B22"/>
<path d="M101.776 64.4731C101.776 64.4731 101.727 64.4159 101.657 64.2927C101.586 64.1695 101.476 63.9715 101.358 63.7559C101.098 63.2895 100.742 62.6031 100.319 61.7495C99.47 60.0423 98.37 57.6399 97.3096 54.9295C96.2492 52.2191 95.4352 49.7023 94.9028 47.8895C94.6388 46.9699 94.4364 46.2263 94.3088 45.6895C94.2516 45.4519 94.2032 45.2495 94.168 45.0911C94.1452 45.023 94.1334 44.9517 94.1328 44.8799C94.167 44.944 94.1935 45.012 94.212 45.0823L94.3924 45.6675C94.564 46.2087 94.7884 46.9391 95.0568 47.8235C95.6288 49.6407 96.4692 52.1355 97.5208 54.8635C98.5724 57.5915 99.6548 59.9719 100.464 61.6967L101.437 63.7339L101.696 64.2883C101.728 64.3474 101.755 64.4092 101.776 64.4731Z" fill="#232323"/>
<path d="M107.574 62.2688C107.497 62.1152 107.44 61.9526 107.403 61.7848C107.31 61.468 107.187 61.006 107.042 60.434C106.751 59.2944 106.391 57.7016 106.065 55.9328C105.739 54.164 105.511 52.5492 105.379 51.3788C105.308 50.7936 105.264 50.3184 105.238 49.9884C105.218 49.8189 105.218 49.6476 105.238 49.478C105.288 49.6414 105.322 49.8094 105.339 49.9796L105.55 51.3568C105.726 52.5228 105.99 54.1288 106.303 55.8932C106.615 57.6576 106.963 59.2504 107.209 60.3988C107.328 60.9356 107.425 61.3932 107.504 61.7628C107.544 61.9287 107.568 62.0982 107.574 62.2688Z" fill="#232323"/>
<path d="M117.805 61.2525C117.739 61.2525 117.576 56.3157 117.44 50.2305C117.303 44.1453 117.242 39.2041 117.303 39.1997C117.365 39.1953 117.532 44.1321 117.668 50.2261C117.805 56.3201 117.866 61.2525 117.805 61.2525Z" fill="#232323"/>
<path d="M128.099 51.1104C128.161 51.1104 127.448 53.5964 126.511 56.6236C125.574 59.6508 124.751 62.084 124.707 62.0664C124.663 62.0488 125.358 59.5804 126.295 56.5532C127.233 53.526 128.033 51.0928 128.099 51.1104Z" fill="#232323"/>
<path d="M132.297 63.8662C132.305 63.7933 132.325 63.7222 132.354 63.655L132.552 63.0742C132.728 62.5726 132.992 61.851 133.344 60.9622C134.035 59.2022 135.02 56.7426 136.147 54.0586C137.273 51.3746 138.32 48.959 139.09 47.2166C139.469 46.3718 139.781 45.6766 140.019 45.1574L140.278 44.603C140.344 44.4798 140.38 44.4138 140.388 44.4182C140.372 44.4874 140.35 44.5552 140.322 44.6206L140.098 45.1926L139.24 47.2826C138.488 49.069 137.48 51.4802 136.358 54.151C135.236 56.8218 134.242 59.233 133.494 61.0238L132.636 63.1094L132.394 63.6726C132.369 63.7408 132.337 63.8059 132.297 63.8662Z" fill="#232323"/>
<path d="M137.779 66.7349C137.846 66.5793 137.93 66.4317 138.03 66.2949C138.206 66.0133 138.47 65.6129 138.796 65.1245C139.456 64.1521 140.406 62.8233 141.511 61.4065C142.615 59.9897 143.675 58.7665 144.458 57.8865C144.85 57.4465 145.176 57.0989 145.404 56.8613C145.515 56.7295 145.64 56.6113 145.778 56.5093C145.693 56.6594 145.59 56.7983 145.471 56.9229C145.233 57.2133 144.934 57.5697 144.591 57.9921C143.838 58.8985 142.804 60.1525 141.7 61.5693C140.595 62.9861 139.632 64.2929 138.936 65.2433L138.114 66.3653C138.015 66.4998 137.903 66.6237 137.779 66.7349Z" fill="#232323"/>
<path d="M145.797 73.2911C145.753 73.2471 149.238 69.9383 153.572 65.9035C157.906 61.8687 161.461 58.6347 161.492 58.6787C161.523 58.7227 158.056 62.0359 153.717 66.0707C149.379 70.1055 145.841 73.3395 145.797 73.2911Z" fill="#232323"/>
<path d="M159.779 74.6592C159.355 74.9275 158.914 75.1685 158.459 75.3808C157.632 75.8208 156.51 76.4324 155.269 77.1408C154.029 77.8492 152.885 78.4388 152.035 78.8348C151.595 79.0328 151.27 79.1868 151.023 79.2748C150.903 79.3375 150.774 79.3819 150.641 79.4068C151.065 79.1385 151.506 78.8974 151.961 78.6852C152.788 78.2452 153.91 77.6336 155.151 76.9252C156.391 76.2168 157.535 75.6052 158.385 75.2312C158.825 75.0332 159.15 74.8792 159.397 74.7912C159.516 74.7267 159.645 74.6821 159.779 74.6592Z" fill="#232323"/>
<path d="M172.711 80.0232C172.733 80.0848 168.588 81.5984 163.471 83.4068C158.353 85.2152 154.16 86.6276 154.143 86.5704C154.125 86.5132 158.261 84.9952 163.383 83.1868C168.504 81.3784 172.689 79.966 172.711 80.0232Z" fill="#232323"/>
<path d="M176.829 103.55C176.829 103.611 172.319 103.237 166.771 102.709C161.222 102.181 156.726 101.702 156.734 101.636C156.743 101.57 161.24 101.953 166.793 102.481C172.346 103.009 176.834 103.488 176.829 103.55Z" fill="#232323"/>
<path d="M173.518 124.652C173.491 124.709 169.28 122.773 164.115 120.335C158.949 117.898 154.782 115.869 154.809 115.812C154.835 115.755 159.046 117.687 164.212 120.129C169.377 122.571 173.544 124.595 173.518 124.652Z" fill="#232323"/>
<path d="M159.666 144.729C159.618 144.769 156.586 141.244 152.886 136.862C149.186 132.479 146.229 128.885 146.286 128.845C146.343 128.805 149.366 132.325 153.066 136.712C156.767 141.099 159.715 144.685 159.666 144.729Z" fill="#232323"/>
<path d="M148.103 147.4C147.966 147.248 147.844 147.083 147.738 146.907C147.513 146.582 147.197 146.102 146.818 145.508C146.053 144.316 145.027 142.648 143.945 140.778C142.863 138.908 141.939 137.183 141.305 135.938C140.984 135.309 140.724 134.799 140.557 134.442C140.457 134.261 140.375 134.071 140.311 133.875C140.435 134.039 140.544 134.214 140.636 134.398C140.847 134.785 141.12 135.278 141.45 135.863C142.132 137.1 143.083 138.807 144.161 140.677C145.239 142.547 146.242 144.223 146.972 145.433C147.315 146.014 147.606 146.494 147.83 146.872C147.94 147.038 148.032 147.215 148.103 147.4Z" fill="#232323"/>
<path d="M140.921 157.476C140.921 157.476 140.877 157.419 140.807 157.296L140.521 156.759C140.27 156.288 139.931 155.602 139.526 154.748C138.717 153.036 137.674 150.634 136.684 147.915C135.694 145.196 134.946 142.688 134.484 140.875C134.242 139.96 134.044 139.212 133.947 138.697C133.899 138.459 133.859 138.257 133.824 138.098C133.806 138.029 133.796 137.958 133.793 137.887C133.829 137.95 133.854 138.018 133.868 138.09L134.035 138.675C134.189 139.22 134.391 139.946 134.638 140.831C135.157 142.648 135.927 145.147 136.917 147.871C137.907 150.594 138.919 152.984 139.693 154.713L140.617 156.75C140.714 156.97 140.798 157.155 140.868 157.304C140.893 157.359 140.911 157.417 140.921 157.476Z" fill="#232323"/>
<path d="M126.376 150.397C126.281 149.891 126.218 149.379 126.187 148.865C126.086 147.919 125.923 146.613 125.685 145.183C125.448 143.753 125.171 142.468 124.959 141.539C124.821 141.042 124.715 140.537 124.643 140.026C124.708 140.148 124.758 140.278 124.792 140.413C124.88 140.668 124.99 141.038 125.118 141.5C125.369 142.419 125.668 143.7 125.91 145.147C126.12 146.374 126.267 147.611 126.35 148.852C126.381 149.327 126.398 149.732 126.398 149.983C126.409 150.121 126.402 150.26 126.376 150.397Z" fill="#232323"/>
<path d="M116.857 163.064C116.847 162.99 116.847 162.914 116.857 162.84C116.857 162.664 116.857 162.448 116.857 162.193C116.857 161.63 116.857 160.816 116.857 159.813C116.892 157.802 116.985 155.03 117.143 151.972C117.302 148.914 117.5 146.142 117.662 144.14C117.742 143.137 117.816 142.327 117.874 141.768C117.904 141.513 117.926 141.297 117.944 141.126C117.949 141.049 117.964 140.974 117.988 140.901C117.998 140.977 117.998 141.054 117.988 141.13C117.988 141.302 117.988 141.517 117.957 141.777C117.922 142.371 117.878 143.172 117.821 144.149C117.702 146.186 117.544 148.94 117.381 151.981C117.218 155.021 117.104 157.811 117.029 159.817C116.994 160.794 116.963 161.577 116.941 162.193C116.941 162.453 116.914 162.664 116.906 162.84C116.901 162.917 116.884 162.992 116.857 163.064Z" fill="#232323"/>
<path d="M109.123 140.901C109.12 141.281 109.075 141.658 108.991 142.028C108.876 142.714 108.692 143.66 108.45 144.694C108.208 145.728 107.952 146.661 107.75 147.334C107.662 147.702 107.534 148.059 107.367 148.399C107.406 148.023 107.481 147.652 107.592 147.29L108.225 144.65C108.454 143.66 108.665 142.763 108.832 142.01C108.893 141.632 108.991 141.261 109.123 140.901Z" fill="#232323"/>
<path d="M95.1359 134.2C94.5594 135.153 93.9169 136.065 93.2131 136.928C92.5674 137.837 91.8634 138.702 91.1055 139.52C91.6807 138.566 92.3233 137.654 93.0283 136.792C93.671 135.881 94.3751 135.015 95.1359 134.2Z" fill="#232323"/>
<path d="M87.8012 129.254C87.8452 129.294 85.1172 132.502 81.7028 136.413C78.2884 140.325 75.4768 143.453 75.4284 143.422C75.38 143.392 78.1124 140.175 81.5268 136.264C84.9412 132.352 87.7528 129.21 87.8012 129.254Z" fill="#232323"/>
<path d="M84.1272 123.794C83.0482 124.835 81.9159 125.819 80.7348 126.742C78.8208 128.317 77.2368 129.558 77.2148 129.51C78.2946 128.471 79.4269 127.489 80.6072 126.566C81.7333 125.583 82.9082 124.658 84.1272 123.794Z" fill="#232323"/>
<path d="M79.832 115.562C79.8584 115.619 76.0568 117.511 71.3356 119.781C66.6144 122.052 62.7732 123.851 62.7424 123.794C62.7116 123.737 66.5176 121.849 71.2388 119.575C75.96 117.3 79.8056 115.505 79.832 115.562Z" fill="#232323"/>
<path d="M78.1081 111.457C77.9817 111.512 77.8486 111.551 77.7121 111.571C77.4525 111.633 77.0785 111.712 76.6165 111.795C75.6881 111.971 74.3945 112.165 72.9601 112.31C71.5257 112.455 70.2189 112.517 69.2729 112.53C68.8021 112.53 68.4193 112.53 68.1553 112.53C68.0176 112.539 67.8795 112.526 67.7461 112.491C68.2508 112.421 68.7591 112.382 69.2685 112.372C70.2101 112.315 71.5081 112.227 72.9381 112.081C74.3681 111.936 75.6573 111.769 76.5901 111.641C77.0911 111.544 77.5984 111.482 78.1081 111.457Z" fill="#232323"/>
<path d="M76.7118 101.975C76.4556 101.996 76.198 101.996 75.9418 101.975L73.8474 101.869C72.0874 101.781 69.641 101.702 66.9438 101.715C64.2466 101.728 61.8002 101.838 60.0358 101.944L57.9458 102.071C57.6902 102.101 57.4327 102.11 57.1758 102.098C57.4257 102.038 57.6804 102 57.937 101.983C58.4298 101.926 59.1426 101.856 60.0226 101.781C61.7826 101.636 64.2378 101.504 66.9394 101.486C69.641 101.469 72.0918 101.579 73.8606 101.706C74.7406 101.772 75.4578 101.834 75.9506 101.887C76.2061 101.898 76.4604 101.927 76.7118 101.975Z" fill="#232323"/>
<path d="M77.5754 93.6496C77.5754 93.7112 74.711 92.9676 71.213 91.9908C67.715 91.014 64.8946 90.178 64.9122 90.1164C64.9298 90.0548 67.7766 90.794 71.2746 91.7708C74.7726 92.7476 77.593 93.588 77.5754 93.6496Z" fill="#232323"/>
<path d="M79.4189 86.6804C79.3482 86.6762 79.2785 86.6613 79.2121 86.6363L78.6269 86.4604C78.1253 86.302 77.3993 86.0556 76.5149 85.7344C74.204 84.8858 71.9393 83.9165 69.7301 82.8304C67.5218 81.743 65.373 80.5386 63.2929 79.2224C62.4965 78.7164 61.8585 78.294 61.4273 77.9904L60.9345 77.634C60.8245 77.5504 60.7673 77.5064 60.7717 77.4976C60.8383 77.5244 60.9017 77.5583 60.9609 77.5988L61.4801 77.9156C61.9201 78.1972 62.5713 78.5976 63.3765 79.086C64.9913 80.0628 67.2529 81.352 69.8313 82.606C72.4097 83.86 74.8121 84.8808 76.5721 85.5672C77.4521 85.906 78.1605 86.1744 78.6577 86.3592L79.2253 86.5747C79.2927 86.6045 79.3575 86.6398 79.4189 86.6804Z" fill="#232323"/>
<path d="M83.5586 79.6403C83.5234 79.6887 81.297 78.1839 78.5866 76.2743C75.8762 74.3647 73.707 72.7763 73.7466 72.7235C73.7862 72.6707 76.0082 74.1799 78.723 76.0895C81.4378 77.9991 83.5938 79.6007 83.5586 79.6403Z" fill="#232323"/>
<path d="M74.8075 58.2651C74.8075 58.2651 74.8691 58.3003 74.9747 58.3839L75.4147 58.7711L77.0383 60.2055L82.3667 64.9619L87.7171 69.6919L89.3363 71.1307L89.7763 71.5311C89.8294 71.5748 89.8767 71.6251 89.9171 71.6807C89.9171 71.6807 89.8555 71.6499 89.7455 71.5663L89.3055 71.2011C88.9051 70.8799 88.3375 70.4047 87.6379 69.8151C86.2387 68.6359 84.3291 66.9859 82.2391 65.1335C80.1491 63.2811 78.2791 61.5739 76.9591 60.3243C76.2903 59.6995 75.7535 59.1935 75.3839 58.8327L74.9659 58.4191C74.8603 58.3223 74.7987 58.2695 74.8075 58.2651Z" fill="#232323"/>
<path d="M88.5312 58.6655C88.5312 58.6655 88.65 58.7623 88.8304 58.9691C89.0108 59.1759 89.2704 59.4795 89.574 59.8491C90.1856 60.6147 90.9997 61.6971 91.8445 62.9291C92.6893 64.1611 93.3977 65.3139 93.8861 66.1631C94.1325 66.6031 94.3261 66.9331 94.4493 67.1751C94.5254 67.2955 94.5846 67.4258 94.6252 67.5623C94.3027 67.1425 94.0088 66.7015 93.7452 66.2423C93.2216 65.4151 92.4912 64.2843 91.6508 63.0523C90.8104 61.8203 90.0184 60.7335 89.4508 59.9459C89.1191 59.5378 88.8121 59.1102 88.5312 58.6655Z" fill="#232323"/>
<g opacity="0.2">
<path d="M70.9434 54.9211L90.0878 71.6807L94.8442 67.8747L83.7386 50.8555C83.7386 50.8555 82.885 51.4803 80.6586 52.1139C78.5334 52.7255 72.2194 52.8883 70.9434 54.9211Z" fill="black"/>
</g>
<g opacity="0.2">
<path d="M92.2539 40.7442L101.6 64.139L107.575 62.269L105.582 41.9762C105.582 41.9762 104.556 42.2182 102.273 41.9278C100.06 41.6462 94.6959 39.5474 92.2539 40.7442Z" fill="black"/>
</g>
<g opacity="0.3">
<path d="M117.174 35.847L117.803 61.2526L123.4 61.521L129.067 42.0202C127.89 41.7864 126.77 41.3229 125.771 40.6562C123.835 39.4154 119.884 35.6402 117.174 35.847Z" fill="black"/>
</g>
<g opacity="0.2">
<path d="M141.585 40.6475L132.297 64.0687L137.339 66.4843L150.121 50.7059C149.161 49.8948 148.341 48.9298 147.697 47.8503C146.491 45.9011 144.414 41.4263 141.585 40.6475Z" fill="black"/>
</g>
<g opacity="0.2">
<path d="M163.4 55.2598L146.1 73.2998L149.954 78.4962L166.859 67.2146C166.302 66.1893 165.926 65.0761 165.746 63.9234C165.341 61.7234 165.284 57.7282 163.4 55.2598Z" fill="black"/>
</g>
<g opacity="0.2">
<path d="M177.06 75.6143L153.762 85.2019L155.693 91.1551L175.964 88.9551C175.964 88.9551 175.837 88.3303 176.105 86.0467C176.36 83.8335 178.701 78.8879 177.06 75.6143Z" fill="black"/>
</g>
<g opacity="0.2">
<path d="M182.22 100.998L156.819 101.878L156.607 107.479L175.967 113.146C176.096 112.34 176.354 111.559 176.733 110.836C178.176 108.143 182.22 104.342 182.22 100.998Z" fill="black"/>
</g>
<g opacity="0.2">
<path d="M177.534 125.013L154.148 115.9L151.785 121L167.7 133.597C168.537 132.796 169.462 132.093 170.459 131.503C172.395 130.266 176.997 128.264 177.534 125.013Z" fill="black"/>
</g>
<g opacity="0.2">
<path d="M143.14 124.652L137.35 129.492C137.79 129.932 145.503 143.061 150.259 151.166C150.321 151.113 150.386 151.063 150.453 151.017C153.581 148.922 159.152 149.763 162.293 147.69L143.14 124.652Z" fill="black"/>
<path d="M132.501 133.839L123.859 136.787L127.951 160.248C128.217 160.154 128.489 160.079 128.765 160.024C132.84 159.219 138.212 162.765 141.965 161.212C142.479 160.991 142.957 160.695 143.382 160.332L132.501 133.839Z" fill="black"/>
<path d="M116.723 166.144L118.1 135.494L110.62 133.597L105.062 159.997L105.265 160.032C109.137 160.785 112.661 165.88 116.723 166.144Z" fill="black"/>
<path d="M97.9337 130.289C97.9337 130.289 88.0601 143.515 82.8945 150.634C83.1336 150.755 83.3657 150.888 83.5897 151.035C86.9821 153.305 88.2625 159.628 92.0773 161.212C92.2533 161.282 92.4337 161.339 92.6141 161.392L106.408 135.283L97.9337 130.289Z" fill="black"/>
<path d="M87.8006 119.641L66.7422 134.112C66.8214 134.218 66.9094 134.319 66.9798 134.429C69.2678 137.843 68.049 144.175 70.9398 147.07C71.2066 147.332 71.5018 147.564 71.8198 147.761C79.2602 139.375 92.6186 124.318 93.1026 123.794L87.8006 119.641Z" fill="black"/>
<path d="M82.9746 109.305L58.075 113.326C58.4754 117.321 55.325 122.364 56.8078 125.937C56.8972 126.155 57.0046 126.365 57.129 126.566C65.841 122.227 84.0438 113.203 84.8006 113.155L82.9746 109.305Z" fill="black"/>
<path d="M81.6141 95.4362L58.0785 88.647C58.0565 88.8494 58.0301 89.0518 57.9949 89.2498C57.2117 93.2098 51.8613 96.8134 51.8613 100.998C51.8625 101.276 51.8861 101.554 51.9317 101.829H80.6593L81.6141 95.4362Z" fill="black"/>
<path d="M56.9043 75.8693C65.7043 80.5817 82.8951 90.1165 82.8951 90.1165L87.1279 82.0777L67.2487 67.1177C67.1607 67.2717 67.0771 67.4301 66.9803 67.5577C64.7407 70.8973 58.6115 72.1997 56.9043 75.8693Z" fill="black"/>
</g>
<path d="M182.176 100.998L182.15 100.716C182.139 100.44 182.101 100.166 182.035 99.8975C181.779 98.8424 181.332 97.8432 180.715 96.9495C179.958 95.7351 178.814 94.3755 177.635 92.6551C176.969 91.7399 176.458 90.7218 176.122 89.6411C175.835 88.3797 175.835 87.0701 176.122 85.8087C176.368 84.4667 176.768 83.0851 177.116 81.6199C177.464 80.1547 177.789 78.5707 177.464 76.9515C177.279 76.132 176.904 75.3676 176.368 74.7207C175.793 74.0621 175.137 73.4796 174.414 72.9871C172.954 71.9487 171.273 71.1215 169.667 70.0391C168.836 69.5034 168.081 68.8581 167.423 68.1207C166.777 67.3204 166.307 66.3921 166.046 65.3971C165.482 63.3951 165.355 61.2567 164.928 59.1183C164.742 58.0295 164.374 56.9796 163.841 56.0119C163.262 55.0378 162.384 54.2769 161.338 53.8427C160.257 53.4086 159.126 53.1129 157.972 52.9627C156.806 52.7691 155.609 52.6327 154.412 52.4215C153.186 52.2447 151.997 51.8687 150.892 51.3083C149.797 50.6498 148.869 49.7461 148.182 48.6684C147.451 47.6212 146.822 46.4948 146.153 45.3816C145.513 44.2426 144.745 43.1798 143.865 42.2136C142.958 41.2361 141.722 40.6295 140.394 40.5108C139.037 40.4606 137.68 40.6193 136.372 40.9816C135.052 41.3028 133.697 41.6944 132.311 41.954C130.91 42.2841 129.448 42.2569 128.06 41.8748C126.708 41.344 125.442 40.6128 124.307 39.7056C123.132 38.8256 121.988 37.9456 120.734 37.1624C119.48 36.3792 118.059 35.8116 116.581 35.9788H116.304C116.211 35.9788 116.123 36.0184 116.035 36.036C115.855 36.08 115.67 36.1108 115.494 36.1636C115.14 36.2763 114.793 36.4115 114.456 36.5684C113.775 36.892 113.122 37.2702 112.502 37.6992C111.252 38.5792 110.069 39.5384 108.784 40.4096C108.144 40.8573 107.467 41.2489 106.76 41.58C106.035 41.9041 105.259 42.0992 104.468 42.1564C102.88 42.1665 101.3 41.9427 99.7772 41.492C98.2444 41.0543 96.681 40.7322 95.1 40.5284C94.3105 40.4507 93.5136 40.5042 92.7416 40.6868C91.9726 40.9005 91.2634 41.289 90.6692 41.822C89.4548 42.8824 88.61 44.308 87.7652 45.7072C86.9676 47.1723 86.0352 48.5599 84.98 49.852C84.4214 50.492 83.7503 51.0244 83 51.4227C82.234 51.7849 81.4296 52.0594 80.602 52.2411C78.9476 52.6063 77.258 52.7603 75.5904 53.0595C73.9228 53.3587 72.22 53.8295 71.0144 54.9999C70.4325 55.6198 69.9833 56.352 69.6944 57.1515C69.4031 57.958 69.1894 58.7905 69.0564 59.6375C68.7484 61.3359 68.6164 63.0783 68.1764 64.7899C67.9873 65.6586 67.6715 66.4948 67.2392 67.2715C66.7837 68.0411 66.1865 68.7175 65.4792 69.2647C64.0888 70.3823 62.5092 71.2095 60.9956 72.1335C60.2373 72.5899 59.5097 73.0955 58.8176 73.6471C58.129 74.1974 57.55 74.872 57.1104 75.6359C56.6913 76.414 56.4792 77.2867 56.4944 78.1703C56.51 79.0586 56.6146 79.943 56.8068 80.8103C57.1764 82.5703 57.7352 84.2995 58.0344 86.0903C58.2118 87.0094 58.2474 87.9501 58.14 88.8799C58.0151 89.8074 57.7166 90.703 57.26 91.5199C56.3404 93.1259 55.1436 94.5383 54.0832 96.0343C53.5386 96.7716 53.0643 97.5582 52.6664 98.3839C52.2305 99.1893 52.0022 100.091 52.0022 101.006C52.0022 101.922 52.2305 102.823 52.6664 103.629C53.0636 104.455 53.538 105.241 54.0832 105.978C55.1436 107.474 56.3404 108.887 57.26 110.493C57.7082 111.294 58.0064 112.171 58.14 113.08C58.2518 113.997 58.2221 114.926 58.052 115.834C57.7572 117.643 57.1984 119.376 56.8244 121.136C56.6338 122.004 56.5292 122.888 56.512 123.776C56.4947 124.661 56.7053 125.535 57.1236 126.315C57.5597 127.081 58.1376 127.758 58.8264 128.308C59.5185 128.86 60.2461 129.366 61.0044 129.822C62.518 130.746 64.0844 131.582 65.4924 132.691C66.1985 133.239 66.7955 133.915 67.2524 134.684C67.688 135.458 68.004 136.293 68.1896 137.161C68.6032 138.877 68.744 140.62 69.0696 142.318C69.2062 143.165 69.4213 143.997 69.712 144.804C69.9941 145.603 70.4357 146.337 71.01 146.96C72.2288 148.144 73.9448 148.614 75.5904 148.914C77.236 149.213 78.9476 149.354 80.602 149.732C81.4308 149.914 82.2366 150.189 83.0044 150.55C83.7538 150.95 84.4246 151.482 84.9844 152.121C86.0291 153.415 86.9526 154.803 87.7432 156.266C88.588 157.665 89.4328 159.091 90.6472 160.151C91.2404 160.683 91.948 161.071 92.7152 161.286C93.4939 161.483 94.2998 161.548 95.1 161.48C96.6781 161.268 98.2384 160.94 99.7684 160.499C101.292 160.044 102.874 159.819 104.463 159.83C105.255 159.89 106.031 160.086 106.756 160.411C107.462 160.743 108.139 161.134 108.78 161.581C110.064 162.461 111.244 163.434 112.498 164.287C113.115 164.719 113.767 165.099 114.447 165.422C114.784 165.578 115.131 165.714 115.485 165.827C115.666 165.876 115.846 165.911 116.026 165.955L116.299 166.012H116.572C118.055 166.179 119.48 165.572 120.73 164.828C121.98 164.085 123.128 163.147 124.298 162.285C125.435 161.378 126.702 160.647 128.056 160.116C129.444 159.736 130.905 159.709 132.306 160.037C133.692 160.301 135.03 160.692 136.368 161.014C137.678 161.372 139.036 161.53 140.394 161.484C141.72 161.361 142.954 160.753 143.861 159.777C144.738 158.807 145.505 157.743 146.149 156.605C146.813 155.496 147.442 154.37 148.173 153.318C148.864 152.242 149.793 151.339 150.888 150.678C151.992 150.117 153.181 149.742 154.408 149.569C155.609 149.354 156.801 149.217 157.967 149.028C159.123 148.871 160.254 148.567 161.333 148.126C162.379 147.69 163.257 146.93 163.837 145.957C164.367 144.988 164.732 143.938 164.919 142.85C165.359 140.712 165.474 138.569 166.041 136.567C166.3 135.572 166.77 134.645 167.418 133.848C168.075 133.108 168.83 132.463 169.662 131.93C171.268 130.847 172.949 130.02 174.406 128.982C175.131 128.49 175.79 127.906 176.364 127.244C176.899 126.599 177.273 125.835 177.455 125.017C177.608 124.227 177.631 123.417 177.521 122.619C177.43 121.854 177.292 121.096 177.107 120.349C176.755 118.884 176.359 117.502 176.113 116.16C175.826 114.898 175.826 113.589 176.113 112.328C176.451 111.248 176.962 110.23 177.626 109.314C178.819 107.593 179.967 106.234 180.706 105.019C181.324 104.126 181.771 103.126 182.026 102.071C182.092 101.803 182.131 101.529 182.141 101.253L182.167 100.976C182.167 100.976 182.167 101.068 182.167 101.253C182.159 101.53 182.123 101.805 182.062 102.076C181.811 103.139 181.363 104.147 180.742 105.046C179.989 106.269 178.85 107.633 177.662 109.353C177.002 110.262 176.497 111.275 176.17 112.35C175.884 113.598 175.884 114.894 176.17 116.142C176.416 117.462 176.817 118.857 177.173 120.322C177.365 121.076 177.512 121.84 177.613 122.61C177.723 123.418 177.701 124.238 177.547 125.039C177.364 125.876 176.984 126.657 176.438 127.318C175.859 127.988 175.195 128.58 174.463 129.078C172.993 130.126 171.317 130.957 169.72 132.035C168.904 132.565 168.164 133.203 167.52 133.932C166.884 134.716 166.425 135.629 166.173 136.607C165.614 138.587 165.491 140.725 165.06 142.877C164.874 143.982 164.504 145.049 163.964 146.032C163.37 147.033 162.469 147.817 161.395 148.267C160.304 148.715 159.162 149.022 157.994 149.182C156.823 149.376 155.626 149.512 154.434 149.728C153.223 149.9 152.049 150.27 150.958 150.823C149.894 151.469 148.991 152.349 148.318 153.397C147.596 154.44 146.967 155.562 146.298 156.68C145.651 157.83 144.878 158.904 143.993 159.883C143.057 160.892 141.781 161.518 140.411 161.643C139.034 161.697 137.657 161.538 136.328 161.172C134.986 160.851 133.648 160.464 132.276 160.204C130.905 159.883 129.476 159.909 128.118 160.279C126.784 160.804 125.537 161.527 124.417 162.422C123.251 163.28 122.103 164.204 120.836 164.978C120.506 165.154 120.193 165.361 119.85 165.506C119.678 165.585 119.511 165.669 119.34 165.739L118.807 165.928C118.085 166.176 117.319 166.266 116.559 166.192L116.273 166.17C116.18 166.17 116.088 166.131 115.991 166.113C115.806 166.069 115.617 166.034 115.437 165.981C115.071 165.868 114.714 165.73 114.368 165.568C113.677 165.24 113.015 164.856 112.388 164.419C111.125 163.539 109.941 162.58 108.67 161.713C108.038 161.275 107.371 160.889 106.676 160.56C105.973 160.248 105.222 160.059 104.454 160.002C102.886 159.995 101.325 160.218 99.8212 160.666C98.2752 161.121 96.697 161.458 95.1 161.674C94.284 161.753 93.4605 161.698 92.6624 161.511C91.863 161.288 91.1253 160.884 90.5064 160.332C89.2568 159.236 88.4032 157.797 87.5584 156.394C86.7756 154.942 85.8594 153.566 84.8216 152.284C84.281 151.664 83.6306 151.15 82.9032 150.766C82.1534 150.41 81.365 150.141 80.5536 149.965C78.9168 149.604 77.2316 149.45 75.5508 149.147C74.704 149.006 73.8719 148.788 73.0648 148.496C72.2462 148.195 71.4976 147.731 70.8648 147.132C70.2642 146.49 69.8041 145.73 69.514 144.901C69.2169 144.081 68.9974 143.236 68.8584 142.375C68.5504 140.663 68.4184 138.921 67.9784 137.232C67.7957 136.385 67.4872 135.571 67.0632 134.816C66.6179 134.07 66.0357 133.414 65.3472 132.884C63.9832 131.789 62.408 130.962 60.89 130.033C60.1242 129.571 59.3893 129.06 58.69 128.502C57.9782 127.931 57.381 127.231 56.93 126.438C56.4955 125.627 56.2773 124.718 56.2964 123.798C56.3068 122.888 56.413 121.981 56.6132 121.092C56.9872 119.332 57.546 117.572 57.8364 115.812C58.0025 114.926 58.0307 114.019 57.92 113.124C57.7867 112.235 57.4882 111.378 57.04 110.598C56.16 109.014 54.9456 107.611 53.8764 106.102C53.3192 105.35 52.8317 104.548 52.42 103.708C51.9724 102.871 51.7383 101.937 51.7383 100.989C51.7383 100.04 51.9724 99.106 52.42 98.2695C52.8261 97.4316 53.3092 96.6332 53.8632 95.8847C54.9324 94.3755 56.1248 92.9719 57.0224 91.3923C57.4702 90.6109 57.7686 89.753 57.9024 88.8623C58.0051 87.9667 57.9754 87.0609 57.8144 86.1739C57.5196 84.4139 56.9608 82.6539 56.5868 80.8939C56.3903 80.0065 56.2856 79.1012 56.2744 78.1923C56.2568 77.2722 56.4766 76.363 56.9124 75.5523C57.3664 74.7628 57.9632 74.0645 58.6724 73.4931C59.3706 72.934 60.1056 72.4225 60.8724 71.9619C62.3904 71.0335 63.9524 70.2019 65.3296 69.1107C66.0168 68.5805 66.5975 67.9251 67.0412 67.1791C67.4631 66.4221 67.7701 65.6065 67.952 64.7591C68.3612 63.0695 68.502 61.3315 68.832 59.6199C68.9695 58.7595 69.1876 57.914 69.4832 57.0943C69.7485 56.2554 70.2103 55.4919 70.8302 54.8674C71.4501 54.2429 72.2102 53.7755 73.0472 53.5039C73.8543 53.2116 74.6864 52.9936 75.5332 52.8527C77.214 52.5491 78.8992 52.4127 80.536 52.0387C81.3459 51.8576 82.1337 51.5891 82.8856 51.2379C83.6109 50.8511 84.2595 50.3352 84.7996 49.7155C85.8374 48.4335 86.7536 47.0577 87.5364 45.606C88.3812 44.2024 89.2348 42.7636 90.4888 41.6724C91.1108 41.1113 91.855 40.703 92.6624 40.48C93.4608 40.2943 94.284 40.2394 95.1 40.3172C96.6871 40.5294 98.2564 40.8588 99.7948 41.3028C101.298 41.7539 102.859 41.9793 104.428 41.9716C105.188 41.9109 105.932 41.7205 106.628 41.4084C107.325 41.0836 107.992 40.6979 108.621 40.2556C109.897 39.3756 111.081 38.412 112.344 37.554C112.97 37.1157 113.632 36.7315 114.324 36.4056C114.67 36.2443 115.025 36.1047 115.388 35.9876C115.573 35.9348 115.762 35.904 115.947 35.86L116.224 35.7984H116.51C117.27 35.7266 118.036 35.8166 118.759 36.0624L119.291 36.2516C119.463 36.322 119.63 36.4056 119.802 36.4848C120.149 36.6344 120.462 36.8368 120.787 37.0128C122.059 37.7872 123.203 38.7112 124.373 39.5692C125.492 40.4632 126.738 41.1854 128.069 41.712C129.427 42.0841 130.857 42.1098 132.227 41.7868C133.6 41.5316 134.938 41.1444 136.28 40.8232C137.609 40.4577 138.986 40.2975 140.363 40.348C141.733 40.4738 143.008 41.1005 143.944 42.108C144.831 43.0886 145.605 44.1643 146.254 45.3156C146.923 46.4288 147.548 47.5552 148.27 48.5936C148.941 49.6435 149.844 50.5255 150.91 51.1719C152 51.7265 153.174 52.0967 154.386 52.2675C155.578 52.4831 156.775 52.6195 157.945 52.8131C159.113 52.9751 160.255 53.2825 161.346 53.7283C162.421 54.1779 163.323 54.9597 163.92 55.9591C164.458 56.9428 164.828 58.0089 165.016 59.1139C165.456 61.2655 165.57 63.4039 166.125 65.3839C166.38 66.3608 166.838 67.2726 167.471 68.0591C168.114 68.7902 168.855 69.4297 169.671 69.9599C171.268 71.0379 172.949 71.8695 174.414 72.9167C175.146 73.4155 175.81 74.0071 176.39 74.6767C176.936 75.3365 177.317 76.116 177.503 76.9515C177.657 77.7537 177.679 78.5754 177.569 79.3847C177.468 80.154 177.321 80.9166 177.129 81.6683C176.777 83.1379 176.372 84.5151 176.126 85.8527C175.84 87.1008 175.84 88.3975 176.126 89.6455C176.453 90.7202 176.958 91.7328 177.618 92.6419C178.801 94.3667 179.941 95.7219 180.698 96.9495C181.318 97.849 181.766 98.8562 182.018 99.9195C182.079 100.19 182.115 100.465 182.123 100.742C182.176 100.901 182.176 100.998 182.176 100.998Z" fill="#232323"/>
<path d="M104.78 161.48C104.842 161.48 103.218 168.08 101.154 176.185C99.0908 184.29 97.366 190.85 97.3044 190.837C97.2428 190.824 98.8664 184.237 100.93 176.128C102.994 168.019 104.736 161.445 104.78 161.48Z" fill="#232323"/>
<path d="M117.021 140.941C139.081 140.941 156.964 123.058 156.964 100.998C156.964 78.9379 139.081 61.0547 117.021 61.0547C94.9613 61.0547 77.0781 78.9379 77.0781 100.998C77.0781 123.058 94.9613 140.941 117.021 140.941Z" fill="#ECECEC"/>
<path d="M92.4247 87.1554C91.8747 87.7054 88.8475 93.2142 88.5703 97.7594C88.2931 102.305 88.9487 127.816 88.9487 127.816L89.0675 129.51C96.2571 137.918 122.393 150.432 145.933 129.466L147.253 113.771L143.368 80.5466L129.86 77.2422L126.696 72.1162L105.611 77.053L103.728 81.497L92.4247 87.1554Z" fill="#0F0F0F"/>
<path d="M125.249 58.7579C126.178 55.3039 127.089 51.8279 127.41 48.2683C127.731 44.7087 127.436 41.0303 126.019 37.7479C125.804 37.2507 124.022 33.9287 123.485 34.0123C123.102 34.0695 124.255 37.1935 124.079 37.5323C122.385 40.8191 122.077 44.6779 122.565 48.3431C123.069 51.9024 123.97 55.3942 125.249 58.7535" fill="#232323"/>
<path d="M124.897 45.1178C124.729 36.155 119.37 28.785 110.416 29.203L109.589 29.291C105.584 29.7132 101.885 31.6274 99.227 34.6529C96.5692 37.6784 95.1476 41.5935 95.2449 45.6194C95.4385 53.3854 95.7465 61.9654 96.2349 66.0926C97.2425 74.633 105.915 75.0642 105.915 75.0642L106.315 80.683L109.989 84.6738L127.022 74.1138L124.897 45.1178Z" fill="#FFBF9D"/>
<path d="M105.938 75.1301C105.938 75.1301 111.363 74.8793 116.726 70.6641C116.726 70.6641 114.931 78.4125 106.316 78.5401L105.938 75.1301Z" fill="#FF9A6C"/>
<path d="M100.17 52.5847C100.2 52.9059 100.355 53.2023 100.602 53.4098C100.849 53.6173 101.168 53.7192 101.49 53.6935C101.646 53.6896 101.8 53.6544 101.943 53.59C102.086 53.5256 102.215 53.4333 102.321 53.3185C102.428 53.2037 102.51 53.0687 102.564 52.9216C102.618 52.7744 102.641 52.618 102.634 52.4615C102.602 52.1408 102.447 51.8451 102.2 51.6378C101.953 51.4305 101.635 51.3282 101.314 51.3527C101.157 51.356 101.002 51.3908 100.859 51.455C100.716 51.5192 100.587 51.6115 100.481 51.7264C100.374 51.8414 100.291 51.9766 100.238 52.124C100.185 52.2714 100.161 52.4281 100.17 52.5847Z" fill="#232323"/>
<path d="M97.4488 48.9767C97.616 49.1175 98.4696 48.3387 99.7852 48.2023C101.101 48.0659 102.13 48.6423 102.258 48.4443C102.32 48.3695 102.135 48.0967 101.682 47.8327C101.072 47.5002 100.374 47.3635 99.684 47.4411C99.0004 47.5115 98.3566 47.7965 97.8448 48.2551C97.4708 48.6115 97.3652 48.9107 97.4488 48.9767Z" fill="#232323"/>
<path d="M111.781 51.5988C111.811 51.92 111.966 52.2164 112.213 52.4239C112.46 52.6314 112.779 52.7333 113.101 52.7076C113.257 52.7037 113.412 52.6685 113.554 52.6041C113.697 52.5397 113.826 52.4474 113.932 52.3326C114.039 52.2178 114.121 52.0829 114.175 51.9357C114.229 51.7885 114.252 51.6321 114.245 51.4756C114.214 51.1541 114.059 50.8573 113.812 50.6491C113.565 50.4409 113.247 50.338 112.925 50.3624C112.768 50.3669 112.614 50.4027 112.471 50.4676C112.328 50.5324 112.199 50.6252 112.093 50.7403C111.986 50.8554 111.904 50.9907 111.85 51.1381C111.797 51.2855 111.773 51.4422 111.781 51.5988Z" fill="#232323"/>
<path d="M110.382 48.1494C110.549 48.2946 111.407 47.5114 112.719 47.375C114.03 47.2386 115.068 47.815 115.191 47.6214C115.253 47.5422 115.073 47.2694 114.619 47.0098C114.008 46.6756 113.309 46.5388 112.617 46.6182C111.933 46.6856 111.288 46.971 110.778 47.4322C110.409 47.7842 110.303 48.0878 110.382 48.1494Z" fill="#232323"/>
<path d="M106.73 58.7489C106.73 58.6741 105.898 58.6169 104.556 58.5861C104.218 58.5861 103.892 58.5553 103.813 58.3309C103.746 57.988 103.788 57.6329 103.932 57.3145L104.653 54.6745C105.648 50.8905 106.33 47.7929 106.18 47.7533C106.03 47.7137 105.093 50.7497 104.099 54.5381L103.421 57.2001C103.255 57.6225 103.243 58.0895 103.386 58.5201C103.446 58.6347 103.532 58.734 103.636 58.8103C103.741 58.8866 103.861 58.9378 103.989 58.9601C104.18 58.9836 104.374 58.9836 104.565 58.9601C105.907 58.9029 106.734 58.8237 106.73 58.7489Z" fill="#232323"/>
<path d="M110.694 59.2507C110.479 59.2507 110.628 60.6851 109.515 61.8291C108.402 62.9731 106.875 62.9731 106.875 63.1755C106.875 63.2635 107.24 63.4175 107.887 63.3647C108.72 63.2864 109.499 62.9172 110.087 62.3219C110.648 61.7458 110.964 60.9744 110.967 60.1703C110.989 59.5675 110.791 59.2331 110.694 59.2507Z" fill="#232323"/>
<path d="M109.892 42.8077C110.059 43.1509 111.353 42.8429 112.915 42.8693C114.477 42.8957 115.771 43.1817 115.938 42.8385C116.013 42.6757 115.762 42.3633 115.221 42.0685C114.503 41.7204 113.715 41.5396 112.917 41.5396C112.119 41.5396 111.332 41.7204 110.614 42.0685C110.059 42.3325 109.817 42.6449 109.892 42.8077Z" fill="#232323"/>
<path d="M97.5336 44.55C97.7932 44.8228 98.6688 44.418 99.7556 44.286C100.842 44.154 101.788 44.286 101.956 43.9428C102.035 43.78 101.859 43.5028 101.428 43.2564C100.85 42.9746 100.202 42.8706 99.5649 42.9576C98.9281 43.0445 98.3314 43.3185 97.8504 43.7448C97.5072 44.0924 97.4148 44.4136 97.5336 44.55Z" fill="#232323"/>
<path d="M124.865 51.5284C125.006 51.4492 130.559 49.17 130.99 55.0484C131.421 60.9268 125.459 60.126 125.42 59.9588C125.38 59.7916 124.865 51.5284 124.865 51.5284Z" fill="#FFBF9D"/>
<path d="M127.049 57.6049C127.075 57.6049 127.154 57.6665 127.335 57.7325C127.585 57.8193 127.86 57.805 128.1 57.6929C128.703 57.4201 129.152 56.3993 129.104 55.3389C129.083 54.8345 128.949 54.3412 128.712 53.8957C128.643 53.7167 128.532 53.5571 128.388 53.4307C128.244 53.3042 128.071 53.2146 127.885 53.1697C127.766 53.1461 127.642 53.1654 127.536 53.2242C127.429 53.283 127.347 53.3774 127.304 53.4909C127.234 53.6625 127.282 53.7769 127.251 53.7901C127.22 53.8033 127.119 53.6977 127.146 53.4557C127.169 53.3069 127.242 53.1704 127.352 53.0685C127.505 52.9353 127.704 52.8673 127.907 52.8793C128.151 52.9081 128.384 53 128.582 53.1457C128.78 53.2915 128.937 53.4862 129.038 53.7109C129.326 54.2002 129.49 54.7535 129.513 55.3213C129.561 56.5049 129.038 57.6577 128.193 57.9613C128.039 58.0192 127.874 58.0418 127.71 58.0273C127.546 58.0128 127.388 57.9617 127.247 57.8777C127.071 57.7457 127.031 57.6137 127.049 57.6049Z" fill="#FF9A6C"/>
<path d="M98.4168 35.6401C97.4356 35.1737 100.089 31.9133 102.377 30.7033C105.804 28.8773 111.128 27.5441 114.442 28.2569C118.432 29.1369 121.812 30.8529 124.007 34.2937C126.203 37.7345 127.21 41.8397 127.36 45.9185C127.404 47.1637 127.36 48.4661 126.762 49.5573C126.027 50.9081 124.504 51.8277 124.689 53.6141C124.733 53.9367 124.712 54.2647 124.628 54.5791C124.543 54.8934 124.396 55.1877 124.196 55.4445C123.193 56.6589 121.812 55.6689 121.138 54.6305C119.7 52.4305 119.378 49.6805 119.097 47.0493C118.894 45.1837 118.696 43.2741 119.097 41.4437C119.317 40.4449 119.722 39.4901 119.889 38.4825C120.056 37.4749 119.955 36.3529 119.286 35.5785C119.13 35.4161 118.959 35.2688 118.776 35.1385C117.91 34.4741 116.883 34.0528 115.8 33.9182C114.717 33.7837 113.618 33.9406 112.616 34.3729C109.382 35.7545 103.851 37.8665 102.302 36.8369C100.08 35.3585 99.4992 34.3201 99.4992 34.3201L98.4168 35.6401Z" fill="#232323"/>
<path d="M92.4238 87.1553C92.085 87.6261 87.2758 89.2233 85.4498 92.2637C83.6238 95.3041 81.8198 108.953 81.8198 108.953L80.6582 117.92C82.9462 121.537 86.0174 126.328 89.2734 129.708L92.4238 87.1553Z" fill="#0F0F0F"/>
<g opacity="0.3">
<path d="M128.562 100.32C128.692 102.161 129.041 103.979 129.601 105.737C130.23 107.466 131.334 109.094 132.949 109.987C133.622 110.357 134.384 110.603 134.951 111.131C135.519 111.659 135.862 112.513 136.412 113.133C137.1 113.815 137.949 114.313 138.881 114.581C141.502 115.542 144.283 115.99 147.073 115.901C147.161 114.959 147.166 111.501 147.254 110.555L128.562 100.32Z" fill="black"/>
</g>
<path d="M143.369 80.5464C143.369 80.5464 149.432 82.3416 151.21 84.9244C152.987 87.5072 156.133 97.5216 156.78 99.3784C157.427 101.235 156.859 105.538 155.649 108.618C154.439 111.698 152.336 114.378 148.706 114.778C145.076 115.179 139.338 113.084 138.045 111.698C136.751 110.312 136.219 107.246 136.219 107.246C137.831 106.963 139.42 106.565 140.975 106.053" fill="#0F0F0F"/>
<path d="M140.975 106.084L140.9 106.115L140.672 106.198C140.469 106.269 140.166 106.37 139.765 106.489C138.608 106.835 137.433 107.117 136.245 107.334L136.294 107.268C136.441 108.024 136.649 108.767 136.914 109.49C137.059 109.899 137.234 110.298 137.438 110.682C137.646 111.092 137.921 111.465 138.252 111.786C138.624 112.106 139.035 112.378 139.475 112.596C139.939 112.84 140.417 113.059 140.905 113.252C141.952 113.67 143.028 114.012 144.126 114.272C145.31 114.563 146.523 114.718 147.742 114.734C148.06 114.737 148.377 114.723 148.693 114.69C149.011 114.654 149.327 114.598 149.639 114.523C150.278 114.38 150.892 114.141 151.46 113.815C152.644 113.13 153.638 112.161 154.351 110.994C155.106 109.783 155.684 108.47 156.067 107.096C156.38 106.04 156.614 104.962 156.767 103.871C156.931 102.814 156.984 101.744 156.925 100.676C156.89 100.163 156.785 99.6566 156.613 99.1716C156.446 98.6788 156.283 98.1904 156.124 97.7064L155.178 94.8772C154.554 93.038 153.938 91.3 153.322 89.6852C152.781 88.1826 152.129 86.7222 151.372 85.316C151.023 84.7183 150.556 84.1975 150 83.7848C149.515 83.3992 149 83.0534 148.46 82.7508C147.592 82.2556 146.694 81.8148 145.771 81.4308C145.014 81.1184 144.416 80.8984 144.011 80.7532L143.549 80.5904C143.494 80.5757 143.441 80.5551 143.391 80.5288C143.446 80.536 143.501 80.5493 143.554 80.5684L144.024 80.7092C144.438 80.8412 145.045 81.048 145.811 81.3472C146.741 81.7145 147.648 82.1392 148.526 82.6188C149.076 82.9214 149.601 83.2672 150.096 83.6528C150.669 84.0729 151.151 84.6042 151.513 85.2148C152.287 86.6287 152.952 88.0996 153.502 89.6148C154.131 91.2252 154.752 92.9676 155.381 94.8068C155.693 95.7264 156.01 96.6724 156.336 97.636C156.498 98.1156 156.661 98.604 156.824 99.0968C157.005 99.5984 157.116 100.123 157.154 100.654C157.217 101.738 157.165 102.825 157 103.897C156.844 105 156.608 106.09 156.292 107.158C155.899 108.555 155.306 109.889 154.532 111.118C153.798 112.315 152.775 113.309 151.557 114.008C150.97 114.342 150.337 114.587 149.678 114.734C149.358 114.811 149.033 114.868 148.706 114.906C148.38 114.906 148.055 114.963 147.738 114.95C146.502 114.928 145.272 114.765 144.073 114.466C142.966 114.201 141.88 113.852 140.826 113.423C140.334 113.225 139.854 113 139.387 112.75C138.934 112.523 138.511 112.241 138.128 111.91C137.788 111.573 137.505 111.182 137.292 110.752C137.088 110.363 136.913 109.958 136.769 109.542C136.511 108.806 136.309 108.052 136.166 107.285V107.228H136.223C137.772 106.96 138.96 106.656 139.765 106.436L140.68 106.176L140.914 106.11C140.949 106.084 140.975 106.08 140.975 106.084Z" fill="#232323"/>
<path d="M152.102 102.842C152.058 102.842 151.917 102.094 151.411 100.976C150.747 99.5231 149.819 98.2058 148.675 97.0907C148.041 96.4872 147.323 95.9775 146.545 95.5771L146.013 95.3395C145.837 95.2603 145.652 95.2251 145.485 95.1679C145.168 95.0683 144.842 95.0005 144.512 94.9655L144.292 94.9347H143.694C143.487 94.9316 143.281 94.9493 143.078 94.9875C142.901 95.023 142.721 95.0422 142.541 95.0447C142.708 94.9757 142.882 94.927 143.06 94.8995C143.265 94.8414 143.477 94.8104 143.689 94.8071H144.085H144.301L144.53 94.8335C144.871 94.8573 145.209 94.9163 145.537 95.0095C145.722 95.0558 145.904 95.1116 146.083 95.1767L146.637 95.4143C147.445 95.813 148.187 96.3323 148.837 96.9543C150.007 98.0843 150.933 99.4407 151.561 100.941C151.673 101.196 151.77 101.457 151.851 101.724C151.919 101.924 151.975 102.129 152.019 102.336C152.063 102.501 152.091 102.671 152.102 102.842Z" fill="#232323"/>
<path d="M155.411 97.3984C155.161 96.758 154.855 96.141 154.496 95.5547C153.584 94.163 152.219 93.1292 150.633 92.6288C148.772 92.0612 146.963 92.2371 145.7 92.3559L144.191 92.5363C144.008 92.5694 143.823 92.5856 143.637 92.5847C143.811 92.5168 143.993 92.471 144.178 92.4483C144.53 92.3779 145.058 92.2855 145.683 92.1975C147.35 91.9061 149.061 91.9782 150.699 92.4088C151.595 92.6782 152.428 93.1273 153.145 93.7288C153.733 94.228 154.235 94.8194 154.632 95.4799C154.904 95.9135 155.122 96.379 155.279 96.8659C155.343 97.0377 155.388 97.2164 155.411 97.3984Z" fill="#232323"/>
<path d="M150.84 90.891C148.468 90.3317 145.989 90.4291 143.668 91.1726C143.972 90.974 144.307 90.8255 144.658 90.7326C145.491 90.4766 146.353 90.3287 147.223 90.2926C148.094 90.2617 148.964 90.3416 149.815 90.5302C150.173 90.5986 150.518 90.7202 150.84 90.891Z" fill="#232323"/>
<path d="M141.027 82.0601C141.062 82.0601 140.974 82.6805 140.903 83.6749C140.719 86.2219 140.939 88.7821 141.555 91.2605L141.396 91.3133C141.216 90.8073 141.075 90.3937 140.983 90.1033C140.925 89.9617 140.884 89.8141 140.859 89.6633C140.949 89.7999 141.02 89.9479 141.071 90.1033C141.189 90.3805 141.352 90.7853 141.555 91.2869L141.396 91.3353C141.048 90.1178 140.816 88.8699 140.705 87.6085C140.59 86.3036 140.602 84.9906 140.741 83.6881C140.798 83.1909 140.864 82.8081 140.917 82.5133C140.931 82.3577 140.968 82.2051 141.027 82.0601Z" fill="#232323"/>
<path d="M132.452 70.7739C132.452 70.7739 129.306 70.7739 128.91 74.5535C128.606 77.4575 128.91 80.2735 128.91 81.5495C128.91 82.8255 128.351 87.3443 128.351 87.3443C128.351 87.3443 126.204 89.2495 126.239 91.5375C126.274 93.8255 127.911 94.5383 127.911 94.5383C127.636 95.2473 127.576 96.0213 127.737 96.7643C127.898 97.5073 128.274 98.1867 128.817 98.7183C128.817 98.7183 127.906 100.826 128.654 102.238C129.085 102.941 129.758 103.462 130.546 103.704C130.417 103.982 130.349 104.284 130.347 104.591C130.345 104.897 130.409 105.201 130.534 105.48C130.659 105.76 130.843 106.01 131.072 106.213C131.302 106.416 131.573 106.567 131.866 106.656C132.923 106.983 134.031 107.119 135.136 107.056L137.485 107.012L139.553 108.156C139.553 108.156 143.1 106.612 143.188 104.522L143.28 102.432C143.28 102.432 142.264 98.9999 142.18 97.8999C142.096 96.7999 142.998 94.1731 142.453 92.9939C141.907 91.8147 140.002 91.1195 140.182 89.4739C140.363 87.8283 140.002 86.9131 139.184 86.0023C138.365 85.0915 134.753 83.2787 134.753 83.2787C134.753 83.2787 133.824 80.6387 133.824 78.8303C133.824 77.0219 135.633 71.4647 132.452 70.7739Z" fill="#FFBF9D"/>
<path d="M134.572 83.9653C134.302 84.1867 134.006 84.3757 133.692 84.5285C133.138 84.8541 132.372 85.2853 131.492 85.7517C130.612 86.2181 129.847 86.6317 129.292 86.9177C128.993 87.0989 128.674 87.2464 128.342 87.3577C128.611 87.1339 128.907 86.9433 129.222 86.7901C129.776 86.4645 130.542 86.0333 131.422 85.5669C132.302 85.1005 133.067 84.6869 133.622 84.4009C133.921 84.2198 134.24 84.0736 134.572 83.9653Z" fill="#FF9A6C"/>
<path d="M136.641 91.0801C136.641 91.0801 136.553 91.1813 136.363 91.3265C136.101 91.5327 135.828 91.7251 135.545 91.9029C134.616 92.4983 133.628 92.9967 132.597 93.3901C131.566 93.79 130.497 94.0849 129.407 94.2701C128.967 94.3361 128.646 94.3757 128.413 94.3889C128.29 94.4118 128.165 94.4118 128.043 94.3889C128.043 94.3537 128.553 94.2833 129.363 94.1117C130.431 93.8873 131.479 93.5814 132.5 93.1965C133.519 92.8025 134.504 92.3287 135.448 91.7797C135.833 91.5263 136.231 91.2928 136.641 91.0801Z" fill="#FF9A6C"/>
<path d="M139.342 88.8141C139.399 88.8361 139.281 89.2541 138.902 89.5753C138.524 89.8965 138.119 89.9933 138.106 89.9361C138.093 89.8789 138.418 89.7117 138.748 89.4037C139.078 89.0957 139.281 88.7877 139.342 88.8141Z" fill="#FF9A6C"/>
<path d="M138.044 97.3062C137.622 97.5114 137.18 97.6736 136.724 97.7902C135.642 98.1122 134.54 98.3636 133.424 98.5426C132.309 98.7243 131.183 98.8301 130.054 98.8594C129.586 98.8955 129.115 98.8807 128.65 98.8154C129.113 98.7496 129.578 98.7114 130.045 98.701C130.925 98.6394 132.091 98.525 133.389 98.3182C134.687 98.1114 135.844 97.843 136.68 97.6318C137.128 97.4968 137.584 97.388 138.044 97.3062Z" fill="#FF9A6C"/>
<path d="M140.922 96.8001C140.989 96.5709 141.07 96.3461 141.164 96.1269C141.339 95.5894 141.397 95.021 141.336 94.4593C141.266 93.8979 141.073 93.3587 140.772 92.8797C140.63 92.6884 140.499 92.4885 140.381 92.2813C140.381 92.2593 140.632 92.4221 140.909 92.7873C141.265 93.2699 141.489 93.8367 141.56 94.4322C141.631 95.0276 141.546 95.6313 141.314 96.1841C141.133 96.5845 140.944 96.8001 140.922 96.8001Z" fill="#FF9A6C"/>
<path d="M138.219 103.677C137.859 103.81 137.483 103.899 137.102 103.941C136.188 104.085 135.264 104.158 134.338 104.157C133.411 104.155 132.485 104.077 131.571 103.924C131.189 103.881 130.813 103.79 130.453 103.655C130.835 103.662 131.216 103.699 131.593 103.765C132.504 103.868 133.421 103.923 134.338 103.928C135.254 103.926 136.169 103.876 137.08 103.778C137.456 103.714 137.837 103.681 138.219 103.677Z" fill="#FF9A6C"/>
<path d="M132.624 78.8745C132.624 78.9009 132.479 79.0197 132.184 79.1253C131.796 79.255 131.384 79.297 130.977 79.2483C130.571 79.1996 130.181 79.0614 129.834 78.8437C129.57 78.6721 129.447 78.5225 129.465 78.5005C129.951 78.7448 130.469 78.9196 131.005 79.0197C131.548 79.0486 132.094 78.9997 132.624 78.8745Z" fill="#FF9A6C"/>
<path d="M141.573 97.0508C141.612 97.1592 141.63 97.2743 141.625 97.3896C141.626 97.7023 141.589 98.0139 141.515 98.318C141.432 98.7008 141.287 99.1452 141.146 99.638C140.975 100.154 140.92 100.7 140.983 101.24C141.058 101.798 141.476 102.247 141.542 102.815C141.587 103.295 141.464 103.775 141.194 104.174C141.03 104.439 140.84 104.687 140.627 104.914C140.477 105.076 140.385 105.156 140.371 105.147C140.358 105.138 140.675 104.76 141.053 104.095C141.281 103.721 141.379 103.281 141.331 102.846C141.278 102.366 140.855 101.917 140.754 101.279C140.687 100.706 140.752 100.125 140.943 99.5808C141.097 99.0836 141.256 98.648 141.357 98.2608C141.459 97.8633 141.531 97.4589 141.573 97.0508Z" fill="#FF9A6C"/>
<path d="M142.756 99.814C142.828 99.9429 142.878 100.083 142.906 100.228C142.985 100.496 143.09 100.892 143.187 101.385C143.307 101.964 143.377 102.553 143.398 103.145C143.436 103.884 143.301 104.623 143.002 105.301C142.656 105.95 142.197 106.532 141.647 107.021C141.21 107.42 140.743 107.786 140.252 108.117C139.834 108.403 139.482 108.614 139.236 108.75C139.115 108.832 138.983 108.897 138.844 108.944C138.822 108.913 139.35 108.579 140.164 107.985C140.637 107.641 141.086 107.268 141.511 106.867C142.034 106.389 142.471 105.825 142.804 105.2C143.086 104.552 143.22 103.85 143.196 103.145C143.186 102.562 143.133 101.981 143.038 101.407C142.866 100.426 142.721 99.8228 142.756 99.814Z" fill="#232323"/>
<path d="M109.558 85.1665C109.375 85.0588 109.204 84.932 109.047 84.7881L107.727 83.6837L106.812 82.9137C106.656 82.7674 106.481 82.6417 106.293 82.5397C106.202 82.493 106.101 82.4686 105.998 82.4686C105.896 82.4686 105.795 82.493 105.703 82.5397C105.325 82.7377 105.07 83.2217 104.749 83.6265C104.427 84.0313 104.111 84.5065 103.776 84.9465C103.248 85.6593 102.733 86.3413 102.263 86.9749L101.977 87.3533L102.069 86.8869C102.321 85.5784 102.688 84.2945 103.165 83.0501C103.341 82.6101 103.499 82.2317 103.605 81.9897C103.654 81.8597 103.721 81.7369 103.803 81.6245C103.772 81.7587 103.73 81.8899 103.675 82.0161C103.583 82.2669 103.446 82.6321 103.288 83.0985C102.858 84.3493 102.521 85.6303 102.28 86.9309L102.082 86.8429L103.591 84.8101L104.564 83.4901L105.03 82.8697C105.178 82.6493 105.378 82.4681 105.611 82.3417C105.733 82.2881 105.866 82.263 106 82.2683C106.133 82.2737 106.263 82.3093 106.381 82.3725C106.581 82.4851 106.766 82.6226 106.931 82.7817L107.811 83.5737L109.096 84.7309C109.261 84.8637 109.415 85.0094 109.558 85.1665Z" fill="#232323"/>
<path d="M128.135 81.4485C128.084 81.5063 128.027 81.558 127.964 81.6025L127.445 82.0073L125.504 83.4637L119.032 88.2289L118.935 88.2993L118.869 88.1981C118.816 88.1189 118.763 88.0309 118.706 87.9473L115.459 82.8169L115.578 82.8565C114.327 83.3535 113.12 83.9555 111.97 84.6561C111.556 84.9069 111.235 85.0961 111.015 85.2589C110.908 85.3395 110.793 85.4088 110.672 85.4657C110.765 85.3686 110.868 85.2816 110.98 85.2061C111.191 85.0521 111.503 84.8277 111.913 84.5593C113.048 83.8204 114.25 83.1899 115.503 82.6761L115.578 82.6453L115.622 82.7113C116.577 84.1941 117.699 85.9497 118.9 87.8241C118.957 87.9077 119.01 87.9957 119.063 88.0749L118.895 88.0441L125.412 83.3361L127.392 81.9325L127.937 81.5629C128.065 81.4793 128.131 81.4397 128.135 81.4485Z" fill="#232323"/>
<path d="M88.6446 98.9473C88.6647 99.0487 88.6735 99.1519 88.671 99.2553C88.671 99.4841 88.671 99.7789 88.693 100.135C88.693 100.932 88.7326 102.045 88.7546 103.409C88.8074 106.172 88.9174 110.009 89.0626 114.211C89.2078 118.413 89.2914 122.25 89.3002 125.017C89.3002 126.403 89.3002 127.521 89.3002 128.295C89.3002 128.66 89.3002 128.96 89.2782 129.175C89.283 129.28 89.2756 129.385 89.2562 129.488C89.2498 129.384 89.2498 129.279 89.2562 129.175C89.2562 128.951 89.2562 128.652 89.2298 128.295C89.2298 127.494 89.1946 126.381 89.1682 125.022C89.1198 122.254 89.0054 118.422 88.8646 114.215C88.7238 110.009 88.6358 106.176 88.627 103.409C88.627 102.027 88.627 100.905 88.627 100.135C88.627 99.7657 88.627 99.4709 88.627 99.2553C88.6263 99.1523 88.6322 99.0495 88.6446 98.9473Z" fill="#232323"/>
<path d="M109.703 138.688C109.688 138.648 109.679 138.607 109.676 138.565C109.676 138.468 109.676 138.345 109.637 138.191C109.602 137.843 109.553 137.364 109.496 136.752C109.373 135.502 109.232 133.672 109.091 131.45C108.95 129.228 108.832 126.535 108.757 123.57C108.682 120.604 108.673 117.335 108.757 113.89C108.84 110.444 108.994 107.202 109.197 104.24C109.399 101.279 109.637 98.6128 109.874 96.382C110.112 94.1512 110.314 92.3428 110.508 91.102C110.596 90.4904 110.662 90.0152 110.71 89.672C110.737 89.518 110.754 89.3948 110.772 89.298C110.774 89.2558 110.783 89.2142 110.798 89.1748C110.805 89.2171 110.805 89.2601 110.798 89.3024C110.798 89.3992 110.776 89.5224 110.763 89.6764C110.724 90.0196 110.671 90.4992 110.6 91.1108C110.451 92.3604 110.257 94.1644 110.042 96.3908C109.826 98.6172 109.602 101.288 109.412 104.249C109.223 107.21 109.078 110.471 108.999 113.894C108.92 117.317 108.942 120.578 108.999 123.543C109.056 126.509 109.166 129.175 109.289 131.415C109.412 133.654 109.522 135.472 109.619 136.721C109.659 137.333 109.694 137.817 109.716 138.164C109.716 138.318 109.716 138.442 109.738 138.538C109.73 138.589 109.719 138.639 109.703 138.688Z" fill="#232323"/>
<path d="M96.5906 66.6689L96.1242 66.9769L94.7514 67.8569C94.1442 68.2485 93.4314 68.8073 92.5954 69.4233C92.1554 69.7401 91.7506 70.1229 91.2754 70.5101L90.5582 71.1129C90.3118 71.3241 90.0786 71.5529 89.8278 71.7949C87.3943 74.0651 85.2566 76.6329 83.4654 79.4377L82.6822 80.6961C82.405 81.1141 82.1938 81.5761 81.9386 82.0161C81.6834 82.4561 81.4326 82.9313 81.2038 83.4153C80.975 83.8993 80.7638 84.3965 80.5262 84.8981C80.4162 85.1489 80.293 85.3953 80.1874 85.6549C80.0818 85.9145 79.9894 86.1785 79.8882 86.4469C79.6902 86.9749 79.479 87.5073 79.2854 88.0573C78.9598 89.1705 78.5462 90.2969 78.2998 91.4981C77.0455 96.6954 76.8361 102.09 77.6838 107.369C78.787 114.167 81.6334 120.562 85.9455 125.932C90.2576 131.301 95.888 135.461 102.287 138.006C108.687 140.551 115.636 141.393 122.458 140.45C129.28 139.508 135.741 136.813 141.211 132.629C142.592 131.568 143.906 130.422 145.145 129.197L146.025 128.265C146.324 127.957 146.614 127.644 146.905 127.314L147.741 126.351C148.005 126.016 148.264 125.682 148.528 125.352C152.508 120.225 155.164 114.197 156.259 107.8C156.517 106.315 156.691 104.817 156.783 103.312C156.827 102.569 156.827 101.834 156.853 101.112C156.879 100.391 156.8 99.6557 156.774 98.9385C156.774 98.5821 156.743 98.2213 156.73 97.8649C156.717 97.5085 156.651 97.1609 156.615 96.8089C156.527 96.1093 156.444 95.4141 156.36 94.7277C156.277 94.0413 156.096 93.3725 155.964 92.7037C155.854 92.0405 155.707 91.3839 155.524 90.7369L154.979 88.8317C154.893 88.5192 154.789 88.2121 154.666 87.9121C154.552 87.6085 154.437 87.3049 154.327 87.0057C154.094 86.4117 153.887 85.8045 153.637 85.2457C153.386 84.6869 153.113 84.1193 152.853 83.5693C150.94 79.5913 148.373 75.9623 145.259 72.8333C142.9 70.4892 140.267 68.4373 137.418 66.7217L135.737 65.7581C135.484 65.6094 135.222 65.4743 134.954 65.3533L134.215 65.0013L132.895 64.3765C132.499 64.1741 132.107 64.0597 131.777 63.9365L130.246 63.3469L129.727 63.1357L130.255 63.3249L131.791 63.8969C132.125 64.0289 132.517 64.1433 132.917 64.3369L134.237 64.9529L134.981 65.3049C135.25 65.4228 135.513 65.555 135.768 65.7009L137.453 66.6601C140.321 68.3648 142.97 70.4127 145.343 72.7585C148.475 75.8853 151.06 79.5159 152.99 83.4989C153.249 84.0577 153.513 84.6165 153.782 85.1885C154.05 85.7605 154.222 86.3633 154.477 86.9485L154.82 87.8549C154.943 88.1564 155.047 88.465 155.133 88.7789C155.317 89.4125 155.502 90.0461 155.687 90.6929C155.878 91.3423 156.032 92.0019 156.149 92.6685C156.281 93.3373 156.439 93.9885 156.554 94.6969C156.668 95.4053 156.721 96.0873 156.809 96.7913C156.849 97.1433 156.906 97.4953 156.928 97.8517C156.95 98.2081 156.959 98.5689 156.972 98.9297C156.998 99.6513 157.038 100.377 157.055 101.13C157.073 101.882 157.033 102.604 156.985 103.33C156.536 111.384 153.646 119.111 148.7 125.484L147.899 126.487L147.054 127.459C146.781 127.789 146.487 128.106 146.174 128.414L145.294 129.356C144.048 130.587 142.725 131.739 141.334 132.805C135.838 137.007 129.347 139.712 122.493 140.659C115.64 141.605 108.659 140.759 102.23 138.204C95.8004 135.649 90.143 131.471 85.8089 126.079C81.4748 120.686 78.6118 114.263 77.499 107.435C77.0526 104.682 76.905 101.89 77.059 99.1057C77.17 96.5377 77.54 93.9874 78.1634 91.4937C78.4098 90.2881 78.8278 89.1617 79.1534 88.0397C79.3514 87.4941 79.567 86.9573 79.7694 86.4249C79.8706 86.1609 79.9718 85.8969 80.0686 85.6329C80.1654 85.3689 80.3018 85.1269 80.4118 84.8717C80.645 84.3701 80.8518 83.8773 81.0938 83.3889C81.3358 82.9005 81.5954 82.4473 81.8374 81.9853C82.0794 81.5233 82.3082 81.0657 82.5854 80.6433L83.3774 79.3849C85.178 76.5758 87.3327 74.0101 89.7882 71.7509C90.039 71.5177 90.2722 71.2801 90.5186 71.0689L91.2402 70.4661C91.7154 70.0833 92.1202 69.7049 92.5602 69.3881C93.4182 68.7721 94.1222 68.2221 94.7338 67.8349L96.1198 66.9549C96.419 66.7613 96.5906 66.6689 96.5906 66.6689Z" fill="#232323"/>
</svg>
