<svg width="121" height="120" viewBox="0 0 121 120" fill="none" xmlns="http://www.w3.org/2000/svg">
<mask id="mask0_4_10395" style="mask-type:luminance" maskUnits="userSpaceOnUse" x="11" y="12" width="99" height="96">
<path d="M11.8086 12H109.17V108H11.8086V12Z" fill="white"/>
</mask>
<g mask="url(#mask0_4_10395)">
<path d="M104.662 67.7972C105.123 65.1584 109.171 62.7741 109.171 60.0034C109.171 57.2322 105.123 54.8484 104.662 52.2091C104.187 49.4953 107.168 45.8753 106.247 43.3447C105.309 40.7678 100.69 39.9141 99.3361 37.5722C97.968 35.2084 99.528 30.7809 97.7817 28.7022C96.0311 26.6166 91.4005 27.3891 89.3155 25.6372C87.2373 23.8909 87.198 19.1947 84.8348 17.8259C82.4936 16.4722 78.408 18.7753 75.8317 17.8372C73.3011 16.9159 71.6555 12.5153 68.943 12.0403C66.3048 11.5784 63.2598 15.1447 60.4898 15.1447C57.7192 15.1447 54.6748 11.5784 52.0367 12.0403C49.3242 12.5153 47.678 16.9159 45.1467 17.8372C42.5717 18.7753 38.4861 16.4709 36.1448 17.8259C33.7817 19.1947 33.7423 23.8909 31.6636 25.6372C29.5792 27.3891 24.9486 26.6166 23.198 28.7022C21.4517 30.7809 23.0111 35.2084 21.6436 37.5722C20.2892 39.9141 15.6698 40.7678 14.733 43.3447C13.8117 45.8753 16.793 49.4953 16.3173 52.2091C15.8555 54.8484 11.8086 57.2322 11.8086 60.0034C11.8086 62.7741 15.8555 65.1584 16.3173 67.7972C16.793 70.5109 13.8117 74.1309 14.733 76.6628C15.6698 79.2384 20.2892 80.0922 21.6436 82.4341C23.0111 84.799 21.4517 89.2253 23.198 91.3047C24.948 93.3897 29.5786 92.6172 31.6636 94.369C33.7423 96.1153 33.7805 100.813 36.1448 102.18C38.4861 103.535 42.5717 101.231 45.1467 102.169C47.678 103.09 49.323 107.491 52.0367 107.966C54.6748 108.429 57.7192 104.863 60.4898 104.863C63.2598 104.863 66.3048 108.429 68.943 107.966C71.6555 107.491 73.3011 103.09 75.8317 102.169C78.408 101.231 82.493 103.535 84.8342 102.18C87.198 100.813 87.2373 96.1153 89.3155 94.369C91.4005 92.6172 96.0311 93.3897 97.7817 91.3047C99.528 89.2265 97.968 84.799 99.3361 82.4341C100.69 80.0922 105.309 79.2384 106.247 76.6628C107.168 74.1309 104.187 70.5109 104.662 67.7972Z" fill="#00B85C"/>
</g>
<path d="M49.4915 79.3095L36.1327 64.9857C35.2208 64.0614 34.909 61.6995 36.1877 59.9907C37.224 58.6076 40.4771 57.8126 42.2096 59.1314C42.2627 59.172 53.289 67.7207 53.289 67.7207C53.2983 67.7301 53.314 67.7301 53.3233 67.7207L78.0465 44.5932C79.7633 42.8757 82.5377 42.8532 84.284 44.5414C86.0658 46.2645 86.0952 49.1139 84.3483 50.8751L57.1327 79.3207C55.0258 81.4426 51.5921 81.4376 49.4915 79.3095Z" fill="white"/>
</svg>
